<?xml version="1.0" encoding="utf-8" standalone="no"?>
<!DOCTYPE svg PUBLIC "-//W3C//DTD SVG 1.1//EN"
  "http://www.w3.org/Graphics/SVG/1.1/DTD/svg11.dtd">
<!-- Created with matplotlib (https://matplotlib.org/) -->
<svg height="360pt" version="1.1" viewBox="0 0 360 360" width="360pt" xmlns="http://www.w3.org/2000/svg" xmlns:xlink="http://www.w3.org/1999/xlink">
 <metadata>
  <rdf:RDF xmlns:cc="http://creativecommons.org/ns#" xmlns:dc="http://purl.org/dc/elements/1.1/" xmlns:rdf="http://www.w3.org/1999/02/22-rdf-syntax-ns#">
   <cc:Work>
    <dc:type rdf:resource="http://purl.org/dc/dcmitype/StillImage"/>
    <dc:date>2021-06-01T13:40:03.362662</dc:date>
    <dc:format>image/svg+xml</dc:format>
    <dc:creator>
     <cc:Agent>
      <dc:title>Matplotlib v3.3.4, https://matplotlib.org/</dc:title>
     </cc:Agent>
    </dc:creator>
   </cc:Work>
  </rdf:RDF>
 </metadata>
 <defs>
  <style type="text/css">*{stroke-linecap:butt;stroke-linejoin:round;}</style>
 </defs>
 <g id="figure_1">
  <g id="patch_1">
   <path d="M 0 360 
L 360 360 
L 360 0 
L 0 0 
z
" style="fill:#ffffff;"/>
  </g>
  <g id="axes_1">
   <g id="patch_2">
    <path d="M 75.053462 289.521394 
L 340.56 289.521394 
L 340.56 20.978606 
L 75.053462 20.978606 
z
" style="fill:#ffffff;"/>
   </g>
   <g id="matplotlib.axis_1">
    <g id="xtick_1">
     <g id="line2d_1">
      <defs>
       <path d="M 0 0 
L 0 9 
" id="m5f32c30795" style="stroke:#262626;stroke-width:1.875;"/>
      </defs>
      <g>
       <use style="fill:#262626;stroke:#262626;stroke-width:1.875;" x="83.980348" xlink:href="#m5f32c30795" y="289.521394"/>
      </g>
     </g>
     <g id="text_1">
      <!-- 0.0 -->
      <g style="fill:#262626;" transform="translate(70.86027 314.558815)scale(0.165 -0.165)">
       <defs>
        <path d="M 31.78125 66.40625 
Q 24.171875 66.40625 20.328125 58.90625 
Q 16.5 51.421875 16.5 36.375 
Q 16.5 21.390625 20.328125 13.890625 
Q 24.171875 6.390625 31.78125 6.390625 
Q 39.453125 6.390625 43.28125 13.890625 
Q 47.125 21.390625 47.125 36.375 
Q 47.125 51.421875 43.28125 58.90625 
Q 39.453125 66.40625 31.78125 66.40625 
z
M 31.78125 74.21875 
Q 44.046875 74.21875 50.515625 64.515625 
Q 56.984375 54.828125 56.984375 36.375 
Q 56.984375 17.96875 50.515625 8.265625 
Q 44.046875 -1.421875 31.78125 -1.421875 
Q 19.53125 -1.421875 13.0625 8.265625 
Q 6.59375 17.96875 6.59375 36.375 
Q 6.59375 54.828125 13.0625 64.515625 
Q 19.53125 74.21875 31.78125 74.21875 
z
" id="DejaVuSans-48"/>
        <path d="M 10.6875 12.40625 
L 21 12.40625 
L 21 0 
L 10.6875 0 
z
" id="DejaVuSans-46"/>
       </defs>
       <use xlink:href="#DejaVuSans-48"/>
       <use x="63.623047" xlink:href="#DejaVuSans-46"/>
       <use x="95.410156" xlink:href="#DejaVuSans-48"/>
      </g>
     </g>
    </g>
    <g id="xtick_2">
     <g id="line2d_2">
      <g>
       <use style="fill:#262626;stroke:#262626;stroke-width:1.875;" x="132.882582" xlink:href="#m5f32c30795" y="289.521394"/>
      </g>
     </g>
     <g id="text_2">
      <!-- 0.2 -->
      <g style="fill:#262626;" transform="translate(119.762504 314.558815)scale(0.165 -0.165)">
       <defs>
        <path d="M 19.1875 8.296875 
L 53.609375 8.296875 
L 53.609375 0 
L 7.328125 0 
L 7.328125 8.296875 
Q 12.9375 14.109375 22.625 23.890625 
Q 32.328125 33.6875 34.8125 36.53125 
Q 39.546875 41.84375 41.421875 45.53125 
Q 43.3125 49.21875 43.3125 52.78125 
Q 43.3125 58.59375 39.234375 62.25 
Q 35.15625 65.921875 28.609375 65.921875 
Q 23.96875 65.921875 18.8125 64.3125 
Q 13.671875 62.703125 7.8125 59.421875 
L 7.8125 69.390625 
Q 13.765625 71.78125 18.9375 73 
Q 24.125 74.21875 28.421875 74.21875 
Q 39.75 74.21875 46.484375 68.546875 
Q 53.21875 62.890625 53.21875 53.421875 
Q 53.21875 48.921875 51.53125 44.890625 
Q 49.859375 40.875 45.40625 35.40625 
Q 44.1875 33.984375 37.640625 27.21875 
Q 31.109375 20.453125 19.1875 8.296875 
z
" id="DejaVuSans-50"/>
       </defs>
       <use xlink:href="#DejaVuSans-48"/>
       <use x="63.623047" xlink:href="#DejaVuSans-46"/>
       <use x="95.410156" xlink:href="#DejaVuSans-50"/>
      </g>
     </g>
    </g>
    <g id="xtick_3">
     <g id="line2d_3">
      <g>
       <use style="fill:#262626;stroke:#262626;stroke-width:1.875;" x="181.784817" xlink:href="#m5f32c30795" y="289.521394"/>
      </g>
     </g>
     <g id="text_3">
      <!-- 0.4 -->
      <g style="fill:#262626;" transform="translate(168.664739 314.558815)scale(0.165 -0.165)">
       <defs>
        <path d="M 37.796875 64.3125 
L 12.890625 25.390625 
L 37.796875 25.390625 
z
M 35.203125 72.90625 
L 47.609375 72.90625 
L 47.609375 25.390625 
L 58.015625 25.390625 
L 58.015625 17.1875 
L 47.609375 17.1875 
L 47.609375 0 
L 37.796875 0 
L 37.796875 17.1875 
L 4.890625 17.1875 
L 4.890625 26.703125 
z
" id="DejaVuSans-52"/>
       </defs>
       <use xlink:href="#DejaVuSans-48"/>
       <use x="63.623047" xlink:href="#DejaVuSans-46"/>
       <use x="95.410156" xlink:href="#DejaVuSans-52"/>
      </g>
     </g>
    </g>
    <g id="xtick_4">
     <g id="line2d_4">
      <g>
       <use style="fill:#262626;stroke:#262626;stroke-width:1.875;" x="230.687052" xlink:href="#m5f32c30795" y="289.521394"/>
      </g>
     </g>
     <g id="text_4">
      <!-- 0.6 -->
      <g style="fill:#262626;" transform="translate(217.566974 314.558815)scale(0.165 -0.165)">
       <defs>
        <path d="M 33.015625 40.375 
Q 26.375 40.375 22.484375 35.828125 
Q 18.609375 31.296875 18.609375 23.390625 
Q 18.609375 15.53125 22.484375 10.953125 
Q 26.375 6.390625 33.015625 6.390625 
Q 39.65625 6.390625 43.53125 10.953125 
Q 47.40625 15.53125 47.40625 23.390625 
Q 47.40625 31.296875 43.53125 35.828125 
Q 39.65625 40.375 33.015625 40.375 
z
M 52.59375 71.296875 
L 52.59375 62.3125 
Q 48.875 64.0625 45.09375 64.984375 
Q 41.3125 65.921875 37.59375 65.921875 
Q 27.828125 65.921875 22.671875 59.328125 
Q 17.53125 52.734375 16.796875 39.40625 
Q 19.671875 43.65625 24.015625 45.921875 
Q 28.375 48.1875 33.59375 48.1875 
Q 44.578125 48.1875 50.953125 41.515625 
Q 57.328125 34.859375 57.328125 23.390625 
Q 57.328125 12.15625 50.6875 5.359375 
Q 44.046875 -1.421875 33.015625 -1.421875 
Q 20.359375 -1.421875 13.671875 8.265625 
Q 6.984375 17.96875 6.984375 36.375 
Q 6.984375 53.65625 15.1875 63.9375 
Q 23.390625 74.21875 37.203125 74.21875 
Q 40.921875 74.21875 44.703125 73.484375 
Q 48.484375 72.75 52.59375 71.296875 
z
" id="DejaVuSans-54"/>
       </defs>
       <use xlink:href="#DejaVuSans-48"/>
       <use x="63.623047" xlink:href="#DejaVuSans-46"/>
       <use x="95.410156" xlink:href="#DejaVuSans-54"/>
      </g>
     </g>
    </g>
    <g id="xtick_5">
     <g id="line2d_5">
      <g>
       <use style="fill:#262626;stroke:#262626;stroke-width:1.875;" x="279.589286" xlink:href="#m5f32c30795" y="289.521394"/>
      </g>
     </g>
     <g id="text_5">
      <!-- 0.8 -->
      <g style="fill:#262626;" transform="translate(266.469208 314.558815)scale(0.165 -0.165)">
       <defs>
        <path d="M 31.78125 34.625 
Q 24.75 34.625 20.71875 30.859375 
Q 16.703125 27.09375 16.703125 20.515625 
Q 16.703125 13.921875 20.71875 10.15625 
Q 24.75 6.390625 31.78125 6.390625 
Q 38.8125 6.390625 42.859375 10.171875 
Q 46.921875 13.96875 46.921875 20.515625 
Q 46.921875 27.09375 42.890625 30.859375 
Q 38.875 34.625 31.78125 34.625 
z
M 21.921875 38.8125 
Q 15.578125 40.375 12.03125 44.71875 
Q 8.5 49.078125 8.5 55.328125 
Q 8.5 64.0625 14.71875 69.140625 
Q 20.953125 74.21875 31.78125 74.21875 
Q 42.671875 74.21875 48.875 69.140625 
Q 55.078125 64.0625 55.078125 55.328125 
Q 55.078125 49.078125 51.53125 44.71875 
Q 48 40.375 41.703125 38.8125 
Q 48.828125 37.15625 52.796875 32.3125 
Q 56.78125 27.484375 56.78125 20.515625 
Q 56.78125 9.90625 50.3125 4.234375 
Q 43.84375 -1.421875 31.78125 -1.421875 
Q 19.734375 -1.421875 13.25 4.234375 
Q 6.78125 9.90625 6.78125 20.515625 
Q 6.78125 27.484375 10.78125 32.3125 
Q 14.796875 37.15625 21.921875 38.8125 
z
M 18.3125 54.390625 
Q 18.3125 48.734375 21.84375 45.5625 
Q 25.390625 42.390625 31.78125 42.390625 
Q 38.140625 42.390625 41.71875 45.5625 
Q 45.3125 48.734375 45.3125 54.390625 
Q 45.3125 60.0625 41.71875 63.234375 
Q 38.140625 66.40625 31.78125 66.40625 
Q 25.390625 66.40625 21.84375 63.234375 
Q 18.3125 60.0625 18.3125 54.390625 
z
" id="DejaVuSans-56"/>
       </defs>
       <use xlink:href="#DejaVuSans-48"/>
       <use x="63.623047" xlink:href="#DejaVuSans-46"/>
       <use x="95.410156" xlink:href="#DejaVuSans-56"/>
      </g>
     </g>
    </g>
    <g id="xtick_6">
     <g id="line2d_6">
      <g>
       <use style="fill:#262626;stroke:#262626;stroke-width:1.875;" x="328.491521" xlink:href="#m5f32c30795" y="289.521394"/>
      </g>
     </g>
     <g id="text_6">
      <!-- 1.0 -->
      <g style="fill:#262626;" transform="translate(315.371443 314.558815)scale(0.165 -0.165)">
       <defs>
        <path d="M 12.40625 8.296875 
L 28.515625 8.296875 
L 28.515625 63.921875 
L 10.984375 60.40625 
L 10.984375 69.390625 
L 28.421875 72.90625 
L 38.28125 72.90625 
L 38.28125 8.296875 
L 54.390625 8.296875 
L 54.390625 0 
L 12.40625 0 
z
" id="DejaVuSans-49"/>
       </defs>
       <use xlink:href="#DejaVuSans-49"/>
       <use x="63.623047" xlink:href="#DejaVuSans-46"/>
       <use x="95.410156" xlink:href="#DejaVuSans-48"/>
      </g>
     </g>
    </g>
    <g id="text_7">
     <!-- Recall -->
     <g style="fill:#262626;" transform="translate(180.955793 335.667487)scale(0.18 -0.18)">
      <defs>
       <path d="M 44.390625 34.1875 
Q 47.5625 33.109375 50.5625 29.59375 
Q 53.5625 26.078125 56.59375 19.921875 
L 66.609375 0 
L 56 0 
L 46.6875 18.703125 
Q 43.0625 26.03125 39.671875 28.421875 
Q 36.28125 30.8125 30.421875 30.8125 
L 19.671875 30.8125 
L 19.671875 0 
L 9.8125 0 
L 9.8125 72.90625 
L 32.078125 72.90625 
Q 44.578125 72.90625 50.734375 67.671875 
Q 56.890625 62.453125 56.890625 51.90625 
Q 56.890625 45.015625 53.6875 40.46875 
Q 50.484375 35.9375 44.390625 34.1875 
z
M 19.671875 64.796875 
L 19.671875 38.921875 
L 32.078125 38.921875 
Q 39.203125 38.921875 42.84375 42.21875 
Q 46.484375 45.515625 46.484375 51.90625 
Q 46.484375 58.296875 42.84375 61.546875 
Q 39.203125 64.796875 32.078125 64.796875 
z
" id="DejaVuSans-82"/>
       <path d="M 56.203125 29.59375 
L 56.203125 25.203125 
L 14.890625 25.203125 
Q 15.484375 15.921875 20.484375 11.0625 
Q 25.484375 6.203125 34.421875 6.203125 
Q 39.59375 6.203125 44.453125 7.46875 
Q 49.3125 8.734375 54.109375 11.28125 
L 54.109375 2.78125 
Q 49.265625 0.734375 44.1875 -0.34375 
Q 39.109375 -1.421875 33.890625 -1.421875 
Q 20.796875 -1.421875 13.15625 6.1875 
Q 5.515625 13.8125 5.515625 26.8125 
Q 5.515625 40.234375 12.765625 48.109375 
Q 20.015625 56 32.328125 56 
Q 43.359375 56 49.78125 48.890625 
Q 56.203125 41.796875 56.203125 29.59375 
z
M 47.21875 32.234375 
Q 47.125 39.59375 43.09375 43.984375 
Q 39.0625 48.390625 32.421875 48.390625 
Q 24.90625 48.390625 20.390625 44.140625 
Q 15.875 39.890625 15.1875 32.171875 
z
" id="DejaVuSans-101"/>
       <path d="M 48.78125 52.59375 
L 48.78125 44.1875 
Q 44.96875 46.296875 41.140625 47.34375 
Q 37.3125 48.390625 33.40625 48.390625 
Q 24.65625 48.390625 19.8125 42.84375 
Q 14.984375 37.3125 14.984375 27.296875 
Q 14.984375 17.28125 19.8125 11.734375 
Q 24.65625 6.203125 33.40625 6.203125 
Q 37.3125 6.203125 41.140625 7.25 
Q 44.96875 8.296875 48.78125 10.40625 
L 48.78125 2.09375 
Q 45.015625 0.34375 40.984375 -0.53125 
Q 36.96875 -1.421875 32.421875 -1.421875 
Q 20.0625 -1.421875 12.78125 6.34375 
Q 5.515625 14.109375 5.515625 27.296875 
Q 5.515625 40.671875 12.859375 48.328125 
Q 20.21875 56 33.015625 56 
Q 37.15625 56 41.109375 55.140625 
Q 45.0625 54.296875 48.78125 52.59375 
z
" id="DejaVuSans-99"/>
       <path d="M 34.28125 27.484375 
Q 23.390625 27.484375 19.1875 25 
Q 14.984375 22.515625 14.984375 16.5 
Q 14.984375 11.71875 18.140625 8.90625 
Q 21.296875 6.109375 26.703125 6.109375 
Q 34.1875 6.109375 38.703125 11.40625 
Q 43.21875 16.703125 43.21875 25.484375 
L 43.21875 27.484375 
z
M 52.203125 31.203125 
L 52.203125 0 
L 43.21875 0 
L 43.21875 8.296875 
Q 40.140625 3.328125 35.546875 0.953125 
Q 30.953125 -1.421875 24.3125 -1.421875 
Q 15.921875 -1.421875 10.953125 3.296875 
Q 6 8.015625 6 15.921875 
Q 6 25.140625 12.171875 29.828125 
Q 18.359375 34.515625 30.609375 34.515625 
L 43.21875 34.515625 
L 43.21875 35.40625 
Q 43.21875 41.609375 39.140625 45 
Q 35.0625 48.390625 27.6875 48.390625 
Q 23 48.390625 18.546875 47.265625 
Q 14.109375 46.140625 10.015625 43.890625 
L 10.015625 52.203125 
Q 14.9375 54.109375 19.578125 55.046875 
Q 24.21875 56 28.609375 56 
Q 40.484375 56 46.34375 49.84375 
Q 52.203125 43.703125 52.203125 31.203125 
z
" id="DejaVuSans-97"/>
       <path d="M 9.421875 75.984375 
L 18.40625 75.984375 
L 18.40625 0 
L 9.421875 0 
z
" id="DejaVuSans-108"/>
      </defs>
      <use xlink:href="#DejaVuSans-82"/>
      <use x="64.982422" xlink:href="#DejaVuSans-101"/>
      <use x="126.505859" xlink:href="#DejaVuSans-99"/>
      <use x="181.486328" xlink:href="#DejaVuSans-97"/>
      <use x="242.765625" xlink:href="#DejaVuSans-108"/>
      <use x="270.548828" xlink:href="#DejaVuSans-108"/>
     </g>
    </g>
   </g>
   <g id="matplotlib.axis_2">
    <g id="ytick_1">
     <g id="line2d_7">
      <defs>
       <path d="M 0 0 
L -9 0 
" id="mc68e191c86" style="stroke:#262626;stroke-width:1.875;"/>
      </defs>
      <g>
       <use style="fill:#262626;stroke:#262626;stroke-width:1.875;" x="75.053462" xlink:href="#mc68e191c86" y="277.69627"/>
      </g>
     </g>
     <g id="text_8">
      <!-- 0.0 -->
      <g style="fill:#262626;" transform="translate(36.313306 283.964981)scale(0.165 -0.165)">
       <use xlink:href="#DejaVuSans-48"/>
       <use x="63.623047" xlink:href="#DejaVuSans-46"/>
       <use x="95.410156" xlink:href="#DejaVuSans-48"/>
      </g>
     </g>
    </g>
    <g id="ytick_2">
     <g id="line2d_8">
      <g>
       <use style="fill:#262626;stroke:#262626;stroke-width:1.875;" x="75.053462" xlink:href="#mc68e191c86" y="228.794035"/>
      </g>
     </g>
     <g id="text_9">
      <!-- 0.2 -->
      <g style="fill:#262626;" transform="translate(36.313306 235.062746)scale(0.165 -0.165)">
       <use xlink:href="#DejaVuSans-48"/>
       <use x="63.623047" xlink:href="#DejaVuSans-46"/>
       <use x="95.410156" xlink:href="#DejaVuSans-50"/>
      </g>
     </g>
    </g>
    <g id="ytick_3">
     <g id="line2d_9">
      <g>
       <use style="fill:#262626;stroke:#262626;stroke-width:1.875;" x="75.053462" xlink:href="#mc68e191c86" y="179.891801"/>
      </g>
     </g>
     <g id="text_10">
      <!-- 0.4 -->
      <g style="fill:#262626;" transform="translate(36.313306 186.160512)scale(0.165 -0.165)">
       <use xlink:href="#DejaVuSans-48"/>
       <use x="63.623047" xlink:href="#DejaVuSans-46"/>
       <use x="95.410156" xlink:href="#DejaVuSans-52"/>
      </g>
     </g>
    </g>
    <g id="ytick_4">
     <g id="line2d_10">
      <g>
       <use style="fill:#262626;stroke:#262626;stroke-width:1.875;" x="75.053462" xlink:href="#mc68e191c86" y="130.989566"/>
      </g>
     </g>
     <g id="text_11">
      <!-- 0.6 -->
      <g style="fill:#262626;" transform="translate(36.313306 137.258277)scale(0.165 -0.165)">
       <use xlink:href="#DejaVuSans-48"/>
       <use x="63.623047" xlink:href="#DejaVuSans-46"/>
       <use x="95.410156" xlink:href="#DejaVuSans-54"/>
      </g>
     </g>
    </g>
    <g id="ytick_5">
     <g id="line2d_11">
      <g>
       <use style="fill:#262626;stroke:#262626;stroke-width:1.875;" x="75.053462" xlink:href="#mc68e191c86" y="82.087331"/>
      </g>
     </g>
     <g id="text_12">
      <!-- 0.8 -->
      <g style="fill:#262626;" transform="translate(36.313306 88.356042)scale(0.165 -0.165)">
       <use xlink:href="#DejaVuSans-48"/>
       <use x="63.623047" xlink:href="#DejaVuSans-46"/>
       <use x="95.410156" xlink:href="#DejaVuSans-56"/>
      </g>
     </g>
    </g>
    <g id="ytick_6">
     <g id="line2d_12">
      <g>
       <use style="fill:#262626;stroke:#262626;stroke-width:1.875;" x="75.053462" xlink:href="#mc68e191c86" y="33.185097"/>
      </g>
     </g>
     <g id="text_13">
      <!-- 1.0 -->
      <g style="fill:#262626;" transform="translate(36.313306 39.453808)scale(0.165 -0.165)">
       <use xlink:href="#DejaVuSans-49"/>
       <use x="63.623047" xlink:href="#DejaVuSans-46"/>
       <use x="95.410156" xlink:href="#DejaVuSans-48"/>
      </g>
     </g>
    </g>
    <g id="text_14">
     <!-- Precision -->
     <g style="fill:#262626;" transform="translate(28.569868 195.402656)rotate(-90)scale(0.18 -0.18)">
      <defs>
       <path d="M 19.671875 64.796875 
L 19.671875 37.40625 
L 32.078125 37.40625 
Q 38.96875 37.40625 42.71875 40.96875 
Q 46.484375 44.53125 46.484375 51.125 
Q 46.484375 57.671875 42.71875 61.234375 
Q 38.96875 64.796875 32.078125 64.796875 
z
M 9.8125 72.90625 
L 32.078125 72.90625 
Q 44.34375 72.90625 50.609375 67.359375 
Q 56.890625 61.8125 56.890625 51.125 
Q 56.890625 40.328125 50.609375 34.8125 
Q 44.34375 29.296875 32.078125 29.296875 
L 19.671875 29.296875 
L 19.671875 0 
L 9.8125 0 
z
" id="DejaVuSans-80"/>
       <path d="M 41.109375 46.296875 
Q 39.59375 47.171875 37.8125 47.578125 
Q 36.03125 48 33.890625 48 
Q 26.265625 48 22.1875 43.046875 
Q 18.109375 38.09375 18.109375 28.8125 
L 18.109375 0 
L 9.078125 0 
L 9.078125 54.6875 
L 18.109375 54.6875 
L 18.109375 46.1875 
Q 20.953125 51.171875 25.484375 53.578125 
Q 30.03125 56 36.53125 56 
Q 37.453125 56 38.578125 55.875 
Q 39.703125 55.765625 41.0625 55.515625 
z
" id="DejaVuSans-114"/>
       <path d="M 9.421875 54.6875 
L 18.40625 54.6875 
L 18.40625 0 
L 9.421875 0 
z
M 9.421875 75.984375 
L 18.40625 75.984375 
L 18.40625 64.59375 
L 9.421875 64.59375 
z
" id="DejaVuSans-105"/>
       <path d="M 44.28125 53.078125 
L 44.28125 44.578125 
Q 40.484375 46.53125 36.375 47.5 
Q 32.28125 48.484375 27.875 48.484375 
Q 21.1875 48.484375 17.84375 46.4375 
Q 14.5 44.390625 14.5 40.28125 
Q 14.5 37.15625 16.890625 35.375 
Q 19.28125 33.59375 26.515625 31.984375 
L 29.59375 31.296875 
Q 39.15625 29.25 43.1875 25.515625 
Q 47.21875 21.78125 47.21875 15.09375 
Q 47.21875 7.46875 41.1875 3.015625 
Q 35.15625 -1.421875 24.609375 -1.421875 
Q 20.21875 -1.421875 15.453125 -0.5625 
Q 10.6875 0.296875 5.421875 2 
L 5.421875 11.28125 
Q 10.40625 8.6875 15.234375 7.390625 
Q 20.0625 6.109375 24.8125 6.109375 
Q 31.15625 6.109375 34.5625 8.28125 
Q 37.984375 10.453125 37.984375 14.40625 
Q 37.984375 18.0625 35.515625 20.015625 
Q 33.0625 21.96875 24.703125 23.78125 
L 21.578125 24.515625 
Q 13.234375 26.265625 9.515625 29.90625 
Q 5.8125 33.546875 5.8125 39.890625 
Q 5.8125 47.609375 11.28125 51.796875 
Q 16.75 56 26.8125 56 
Q 31.78125 56 36.171875 55.265625 
Q 40.578125 54.546875 44.28125 53.078125 
z
" id="DejaVuSans-115"/>
       <path d="M 30.609375 48.390625 
Q 23.390625 48.390625 19.1875 42.75 
Q 14.984375 37.109375 14.984375 27.296875 
Q 14.984375 17.484375 19.15625 11.84375 
Q 23.34375 6.203125 30.609375 6.203125 
Q 37.796875 6.203125 41.984375 11.859375 
Q 46.1875 17.53125 46.1875 27.296875 
Q 46.1875 37.015625 41.984375 42.703125 
Q 37.796875 48.390625 30.609375 48.390625 
z
M 30.609375 56 
Q 42.328125 56 49.015625 48.375 
Q 55.71875 40.765625 55.71875 27.296875 
Q 55.71875 13.875 49.015625 6.21875 
Q 42.328125 -1.421875 30.609375 -1.421875 
Q 18.84375 -1.421875 12.171875 6.21875 
Q 5.515625 13.875 5.515625 27.296875 
Q 5.515625 40.765625 12.171875 48.375 
Q 18.84375 56 30.609375 56 
z
" id="DejaVuSans-111"/>
       <path d="M 54.890625 33.015625 
L 54.890625 0 
L 45.90625 0 
L 45.90625 32.71875 
Q 45.90625 40.484375 42.875 44.328125 
Q 39.84375 48.1875 33.796875 48.1875 
Q 26.515625 48.1875 22.3125 43.546875 
Q 18.109375 38.921875 18.109375 30.90625 
L 18.109375 0 
L 9.078125 0 
L 9.078125 54.6875 
L 18.109375 54.6875 
L 18.109375 46.1875 
Q 21.34375 51.125 25.703125 53.5625 
Q 30.078125 56 35.796875 56 
Q 45.21875 56 50.046875 50.171875 
Q 54.890625 44.34375 54.890625 33.015625 
z
" id="DejaVuSans-110"/>
      </defs>
      <use xlink:href="#DejaVuSans-80"/>
      <use x="58.552734" xlink:href="#DejaVuSans-114"/>
      <use x="97.416016" xlink:href="#DejaVuSans-101"/>
      <use x="158.939453" xlink:href="#DejaVuSans-99"/>
      <use x="213.919922" xlink:href="#DejaVuSans-105"/>
      <use x="241.703125" xlink:href="#DejaVuSans-115"/>
      <use x="293.802734" xlink:href="#DejaVuSans-105"/>
      <use x="321.585938" xlink:href="#DejaVuSans-111"/>
      <use x="382.767578" xlink:href="#DejaVuSans-110"/>
     </g>
    </g>
   </g>
   <g id="line2d_13">
    <path clip-path="url(#p560260ebb3)" d="M 328.491521 277.314903 
L 328.3226 277.202116 
L 328.212249 277.14945 
L 327.632485 276.923656 
L 327.522983 276.882028 
L 326.981417 276.691464 
L 326.871067 276.65075 
L 324.742152 275.488512 
L 324.279528 275.223298 
L 323.53339 274.810988 
L 323.37805 274.710524 
L 322.331418 274.126775 
L 317.438648 271.161144 
L 317.329996 271.0811 
L 316.20527 270.444081 
L 316.04993 270.356342 
L 315.382734 269.977331 
L 315.200231 269.876748 
L 314.797877 269.627077 
L 314.392975 269.393817 
L 313.047548 268.53748 
L 312.620577 268.291407 
L 312.425342 268.159854 
L 312.093441 267.950539 
L 311.670714 267.655555 
L 306.576767 264.393817 
L 304.444456 262.78397 
L 303.918169 262.342728 
L 300.597469 259.779913 
L 300.044868 259.369375 
L 299.683258 259.091654 
L 299.117075 258.586347 
L 298.666336 258.243989 
L 298.351413 257.975258 
L 298.055164 257.786664 
L 296.702946 256.646095 
L 291.391693 252.089239 
L 290.365434 251.071917 
L 290.115872 250.851545 
L 289.889229 250.623487 
L 287.026059 247.870182 
L 285.801169 246.678819 
L 285.190846 246.017553 
L 284.645036 245.435768 
L 284.343694 245.163501 
L 284.098376 244.963024 
L 282.902347 243.683477 
L 282.599308 243.422593 
L 281.191066 241.960251 
L 280.775978 241.524896 
L 280.100294 240.828611 
L 279.768394 240.512394 
L 279.105442 239.851768 
L 278.503608 239.301013 
L 277.836412 238.573694 
L 276.85599 237.439716 
L 276.399309 236.971266 
L 275.529238 235.994245 
L 273.997064 234.137831 
L 273.585372 233.678059 
L 273.270449 233.292877 
L 272.84857 232.832961 
L 270.637317 230.283597 
L 269.633128 229.190094 
L 269.084771 228.478276 
L 268.427761 227.774983 
L 267.251255 226.267184 
L 266.582362 225.482212 
L 259.817029 216.960705 
L 259.053064 215.858266 
L 257.079488 213.058726 
L 252.416757 206.302015 
L 251.928668 206.14693 
L 251.394742 205.375485 
L 249.528121 202.627104 
L 243.592963 193.614966 
L 242.629519 192.130636 
L 242.004766 191.446801 
L 241.048112 189.924658 
L 239.656847 187.350794 
L 239.12377 186.486097 
L 238.352165 185.124214 
L 237.166322 183.333783 
L 235.459285 180.327866 
L 234.816706 179.375116 
L 233.675003 177.24726 
L 232.057095 174.554621 
L 231.784614 173.966333 
L 231.093651 172.843625 
L 229.313613 169.957636 
L 228.53352 168.799474 
L 226.412244 164.940898 
L 224.403017 161.554674 
L 221.151922 156.622597 
L 219.78867 154.212335 
L 215.267696 146.680006 
L 214.843271 145.716293 
L 213.710057 143.960285 
L 213.10992 142.987057 
L 211.528513 139.879164 
L 209.753568 136.713777 
L 208.409839 134.60392 
L 207.775748 133.542715 
L 207.241821 132.311952 
L 205.107813 129.065541 
L 203.822655 126.549436 
L 203.062934 125.342957 
L 201.00702 121.132032 
L 200.301626 119.69294 
L 199.502009 118.382557 
L 197.948614 115.560712 
L 196.361265 112.724996 
L 194.757788 109.573985 
L 192.034678 104.851345 
L 189.206311 99.841659 
L 188.043386 98.391001 
L 182.800041 89.581169 
L 181.778875 87.633823 
L 178.199276 82.150754 
L 171.660586 72.968084 
L 170.258286 71.217866 
L 168.760915 69.609678 
L 165.761929 66.098457 
L 162.627976 63.045573 
L 161.062697 61.518969 
L 159.246158 60.22983 
L 157.610425 58.546003 
L 152.04961 54.464367 
L 150.310317 53.002944 
L 146.560948 50.469656 
L 144.666315 48.856756 
L 142.762345 47.517857 
L 140.823572 46.537196 
L 136.852653 44.238249 
L 134.868891 43.292419 
L 132.656788 42.479885 
L 128.600984 40.718297 
L 120.990197 38.092576 
L 118.586255 37.428445 
L 116.151754 36.5635 
L 113.488063 36.131517 
L 110.852385 35.321201 
L 108.001098 34.611068 
L 104.926565 34.132661 
L 93.767586 33.31227 
L 87.121941 33.185097 
L 87.121941 33.185097 
" style="fill:none;stroke:#e41a1c;stroke-linecap:round;stroke-width:2.25;"/>
   </g>
   <g id="line2d_14">
    <defs>
     <path d="M 0 4.5 
C 1.193414 4.5 2.338109 4.025852 3.181981 3.181981 
C 4.025852 2.338109 4.5 1.193414 4.5 0 
C 4.5 -1.193414 4.025852 -2.338109 3.181981 -3.181981 
C 2.338109 -4.025852 1.193414 -4.5 0 -4.5 
C -1.193414 -4.5 -2.338109 -4.025852 -3.181981 -3.181981 
C -4.025852 -2.338109 -4.5 -1.193414 -4.5 0 
C -4.5 1.193414 -4.025852 2.338109 -3.181981 3.181981 
C -2.338109 4.025852 -1.193414 4.5 0 4.5 
z
" id="m1d24ac41cb" style="stroke:#e41a1c;"/>
    </defs>
    <g clip-path="url(#p560260ebb3)">
     <use style="fill:#e41a1c;stroke:#e41a1c;" x="200.301626" xlink:href="#m1d24ac41cb" y="119.69294"/>
    </g>
   </g>
   <g id="line2d_15">
    <path clip-path="url(#p560260ebb3)" d="M 328.491521 277.307955 
L 328.402219 277.196627 
L 328.292824 277.064722 
L 328.007058 276.931241 
L 327.897663 276.895491 
L 327.57171 276.75182 
L 327.462315 276.686691 
L 327.225665 276.543961 
L 327.11627 276.483265 
L 326.859527 276.32305 
L 326.750132 276.266196 
L 326.538039 276.099848 
L 326.428644 275.997412 
L 326.261203 275.822784 
L 326.154041 275.729771 
L 325.919623 275.565397 
L 325.830321 275.486356 
L 325.578042 275.375843 
L 325.468647 275.278589 
L 325.01544 274.868278 
L 324.906045 274.74923 
L 324.417116 274.221123 
L 324.307721 274.052167 
L 324.209489 273.913397 
L 323.441492 272.855923 
L 323.332097 272.691418 
L 322.492658 271.862837 
L 322.331914 271.689493 
L 321.081686 269.887036 
L 320.878523 269.75325 
L 317.462721 265.471997 
L 317.284117 265.266678 
L 316.915746 264.784018 
L 316.571933 264.266389 
L 316.442445 264.10129 
L 316.199097 263.782087 
L 315.904401 263.343582 
L 313.307944 259.770886 
L 313.142736 259.414525 
L 312.671668 258.505224 
L 312.361343 258.208377 
L 312.039856 257.691877 
L 311.843391 257.39696 
L 311.064231 256.268618 
L 310.883394 255.999506 
L 310.401164 255.208289 
L 309.903305 254.62735 
L 309.191121 253.437036 
L 308.976796 253.051279 
L 308.519123 252.343807 
L 307.894009 251.361138 
L 307.713173 251.141325 
L 305.085461 246.673351 
L 304.924717 246.182198 
L 304.674671 245.683249 
L 304.462579 245.347089 
L 304.301835 245.082178 
L 304.031697 244.554482 
L 303.440071 243.651147 
L 303.065002 242.884789 
L 302.864073 242.603343 
L 300.999893 239.716497 
L 300.452918 238.624159 
L 300.211803 238.257289 
L 299.595619 237.380014 
L 299.249573 236.878511 
L 298.66911 235.767898 
L 298.271716 235.083353 
L 297.418882 233.452365 
L 297.104092 233.170832 
L 296.76921 232.380959 
L 296.338327 231.575471 
L 295.914143 230.726196 
L 295.407354 229.655006 
L 293.665964 226.617013 
L 293.473965 226.197241 
L 293.02299 225.356757 
L 292.659084 224.72037 
L 292.123272 223.61113 
L 291.674529 222.675312 
L 291.301693 221.960058 
L 290.386348 220.199166 
L 289.997884 219.411982 
L 289.491095 218.311437 
L 288.823562 217.215452 
L 288.042169 215.760595 
L 286.977243 213.941903 
L 286.687011 213.651415 
L 279.116432 198.873334 
L 278.627504 198.419678 
L 276.91737 195.372355 
L 276.468627 194.856708 
L 275.856908 193.669477 
L 273.874403 190.253874 
L 273.289475 188.986927 
L 272.769291 188.420131 
L 271.347156 185.722659 
L 270.458601 183.525504 
L 266.826241 177.625484 
L 266.067174 175.862395 
L 263.727461 171.585559 
L 262.758534 169.665893 
L 261.528399 167.808219 
L 259.878544 164.832177 
L 258.686362 162.844398 
L 258.101433 161.692161 
L 255.346466 157.46598 
L 254.522655 156.465107 
L 252.33922 153.035444 
L 251.691781 151.773862 
L 250.700528 150.621589 
L 249.162301 148.139686 
L 248.175514 146.912134 
L 246.487705 144.238199 
L 245.541104 142.891833 
L 244.784269 141.335471 
L 240.790236 135.559365 
L 239.600287 134.210659 
L 236.068392 129.287251 
L 234.925326 127.549181 
L 233.391564 126.093815 
L 230.757154 122.653518 
L 227.792327 119.289031 
L 226.459494 117.50267 
L 224.818569 115.702289 
L 223.41876 113.767564 
L 221.592534 111.934142 
L 220.018585 110.029421 
L 218.513846 107.941056 
L 216.629574 105.868385 
L 214.698417 103.958088 
L 212.756098 101.752545 
L 210.793686 99.788528 
L 208.878158 97.684254 
L 203.113712 90.67673 
L 200.90572 88.211146 
L 198.548146 86.071654 
L 196.335689 83.68947 
L 194.036162 81.456766 
L 188.892365 76.715527 
L 185.704283 74.746874 
L 182.59434 72.655775 
L 179.542443 70.246343 
L 171.797725 66.560955 
L 168.165366 64.570653 
L 164.892446 62.044222 
L 161.271249 60.188258 
L 157.252658 58.449871 
L 153.323369 57.124197 
L 145.100885 52.975497 
L 140.236158 51.306685 
L 131.312653 47.004205 
L 127.66913 44.562419 
L 123.596958 42.260231 
L 119.198833 40.900656 
L 114.992708 39.294873 
L 110.420445 38.516801 
L 99.891736 35.36125 
L 91.191486 33.563012 
L 87.226476 33.185097 
L 87.226476 33.185097 
" style="fill:none;stroke:#377eb8;stroke-linecap:round;stroke-width:2.25;"/>
   </g>
   <g id="line2d_16">
    <defs>
     <path d="M 0 4.5 
C 1.193414 4.5 2.338109 4.025852 3.181981 3.181981 
C 4.025852 2.338109 4.5 1.193414 4.5 0 
C 4.5 -1.193414 4.025852 -2.338109 3.181981 -3.181981 
C 2.338109 -4.025852 1.193414 -4.5 0 -4.5 
C -1.193414 -4.5 -2.338109 -4.025852 -3.181981 -3.181981 
C -4.025852 -2.338109 -4.5 -1.193414 -4.5 0 
C -4.5 1.193414 -4.025852 2.338109 -3.181981 3.181981 
C -2.338109 4.025852 -1.193414 4.5 0 4.5 
z
" id="m5098e00347" style="stroke:#377eb8;"/>
    </defs>
    <g clip-path="url(#p560260ebb3)">
     <use style="fill:#377eb8;stroke:#377eb8;" x="226.459494" xlink:href="#m5098e00347" y="117.50267"/>
    </g>
   </g>
   <g id="line2d_17">
    <path clip-path="url(#p560260ebb3)" d="M 328.491521 277.044225 
L 328.444023 276.932727 
L 328.334411 276.839809 
L 328.199223 276.723571 
L 328.089611 276.483334 
L 327.943462 276.363399 
L 327.83385 276.249925 
L 327.691354 276.12556 
L 327.581743 275.965287 
L 327.505014 275.842603 
L 327.395402 275.727771 
L 327.300405 275.599603 
L 327.190794 275.463839 
L 327.081182 275.327591 
L 326.97157 275.222678 
L 326.909456 275.091499 
L 326.799845 274.959084 
L 326.701194 274.811137 
L 326.591582 274.555819 
L 326.489278 274.399568 
L 326.379666 274.241519 
L 326.284669 274.069094 
L 326.175057 273.812951 
L 326.076406 273.671583 
L 325.966795 273.491164 
L 325.784108 273.239206 
L 325.59046 272.957103 
L 325.499117 272.859181 
L 325.37489 272.741007 
L 325.27624 272.580468 
L 325.181243 272.451775 
L 325.071631 272.359923 
L 324.958365 272.125474 
L 324.848754 271.888827 
L 324.724527 271.618352 
L 324.618569 271.431674 
L 324.47242 271.264992 
L 323.661292 270.200784 
L 323.55168 270.013466 
L 323.171692 269.477066 
L 323.014582 269.363444 
L 322.583442 268.789605 
L 322.408063 268.614482 
L 322.104803 268.165606 
L 321.914809 267.960631 
L 321.648087 267.55759 
L 321.417902 267.264431 
L 319.306047 264.416586 
L 319.05394 264.029566 
L 318.615493 263.511677 
L 318.272042 263.089367 
L 318.213582 262.965563 
L 318.045511 262.803484 
L 317.687445 262.365442 
L 317.548604 262.165295 
L 316.262491 260.449647 
L 316.061536 260.259598 
L 315.776545 259.926926 
L 315.487901 259.44958 
L 315.363674 259.300124 
L 314.990994 258.858359 
L 314.793692 258.602203 
L 314.450242 258.088625 
L 314.252941 257.882001 
L 313.960642 257.403784 
L 313.796224 257.104956 
L 313.1349 256.192063 
L 312.484536 255.19682 
L 312.163008 254.681529 
L 311.819557 254.140351 
L 311.468799 253.684039 
L 310.336143 252.085491 
L 309.84289 251.416169 
L 309.605398 250.899098 
L 309.159643 250.23542 
L 308.5787 249.384241 
L 305.396302 245.044204 
L 305.10035 244.659191 
L 304.935933 244.351281 
L 302.312555 240.461945 
L 300.270121 237.339024 
L 299.893787 236.561558 
L 299.243423 235.475069 
L 298.234994 233.838032 
L 297.898851 233.313707 
L 297.668666 232.967637 
L 297.285025 232.24746 
L 296.937921 231.688013 
L 296.587163 231.095522 
L 296.024488 230.0957 
L 295.706614 229.699666 
L 295.275474 228.855688 
L 294.694531 227.745671 
L 294.413194 227.313178 
L 293.105159 225.186734 
L 292.725172 224.720024 
L 291.99808 223.422841 
L 291.04811 222.143104 
L 290.682737 221.58791 
L 290.313711 221.018391 
L 290.017759 220.413105 
L 289.572004 219.506212 
L 288.958177 218.186922 
L 286.692866 214.327539 
L 285.224067 212.107068 
L 284.745428 211.309603 
L 283.996414 210.088748 
L 283.18894 208.173299 
L 282.582421 207.238559 
L 281.910135 205.824221 
L 281.069777 204.33367 
L 280.302494 203.398922 
L 279.816548 202.347112 
L 276.970294 197.417548 
L 276.462425 196.855464 
L 272.41044 189.057489 
L 269.618992 183.679986 
L 269.35227 182.78942 
L 268.822479 182.005731 
L 268.46076 181.106561 
L 267.543674 179.392455 
L 266.674086 177.536949 
L 265.895842 175.670954 
L 265.307592 174.78567 
L 264.321085 172.765761 
L 263.791295 171.769912 
L 261.357911 166.058956 
L 258.840492 161.334394 
L 258.036672 160.162939 
L 257.510535 158.751522 
L 255.36945 154.53353 
L 254.598513 153.016344 
L 253.758156 151.645628 
L 252.35147 148.182553 
L 251.525728 146.617997 
L 250.835173 144.83778 
L 249.106959 141.173353 
L 247.411629 137.321945 
L 246.428776 135.333984 
L 245.281505 133.347049 
L 244.273076 131.012971 
L 241.90546 126.943735 
L 239.124973 122.377576 
L 236.494288 117.046749 
L 232.93921 111.925225 
L 231.079462 108.989846 
L 228.810497 106.262522 
L 226.548839 103.128517 
L 224.393139 99.751256 
L 221.839183 96.719534 
L 212.149494 87.222875 
L 209.073055 83.81677 
L 202.068857 77.295572 
L 198.155714 73.305781 
L 193.877197 69.709645 
L 189.408687 66.855344 
L 184.498076 64.216521 
L 179.675154 60.883725 
L 174.717044 58.341076 
L 169.857585 55.444332 
L 165.041971 52.004604 
L 160.299431 49.026049 
L 155.421704 46.151957 
L 150.233409 43.541472 
L 140.266037 39.448666 
L 135.088704 37.461509 
L 129.407156 36.234203 
L 123.784067 35.276838 
L 117.408311 34.381856 
L 107.38248 33.756385 
L 95.657665 33.261578 
L 95.657665 33.261578 
" style="fill:none;stroke:#4daf4a;stroke-linecap:round;stroke-width:2.25;"/>
   </g>
   <g id="line2d_18">
    <defs>
     <path d="M 0 4.5 
C 1.193414 4.5 2.338109 4.025852 3.181981 3.181981 
C 4.025852 2.338109 4.5 1.193414 4.5 0 
C 4.5 -1.193414 4.025852 -2.338109 3.181981 -3.181981 
C 2.338109 -4.025852 1.193414 -4.5 0 -4.5 
C -1.193414 -4.5 -2.338109 -4.025852 -3.181981 -3.181981 
C -4.025852 -2.338109 -4.5 -1.193414 -4.5 0 
C -4.5 1.193414 -4.025852 2.338109 -3.181981 3.181981 
C -2.338109 4.025852 -1.193414 4.5 0 4.5 
z
" id="ma3ac688182" style="stroke:#4daf4a;"/>
    </defs>
    <g clip-path="url(#p560260ebb3)">
     <use style="fill:#4daf4a;stroke:#4daf4a;" x="231.079462" xlink:href="#ma3ac688182" y="108.989846"/>
    </g>
   </g>
   <g id="patch_3">
    <path d="M 75.053462 289.521394 
L 75.053462 20.978606 
" style="fill:none;stroke:#262626;stroke-linecap:square;stroke-linejoin:miter;stroke-width:1.875;"/>
   </g>
   <g id="patch_4">
    <path d="M 75.053462 289.521394 
L 340.56 289.521394 
" style="fill:none;stroke:#262626;stroke-linecap:square;stroke-linejoin:miter;stroke-width:1.875;"/>
   </g>
   <g id="text_15">
    <!-- 2021_05_code_2020_12_fairseq_swissprot_innerd768 -->
    <g style="fill:#262626;" transform="translate(-32.991082 14.978606)scale(0.18 -0.18)">
     <defs>
      <path d="M 50.984375 -16.609375 
L 50.984375 -23.578125 
L -0.984375 -23.578125 
L -0.984375 -16.609375 
z
" id="DejaVuSans-95"/>
      <path d="M 10.796875 72.90625 
L 49.515625 72.90625 
L 49.515625 64.59375 
L 19.828125 64.59375 
L 19.828125 46.734375 
Q 21.96875 47.46875 24.109375 47.828125 
Q 26.265625 48.1875 28.421875 48.1875 
Q 40.625 48.1875 47.75 41.5 
Q 54.890625 34.8125 54.890625 23.390625 
Q 54.890625 11.625 47.5625 5.09375 
Q 40.234375 -1.421875 26.90625 -1.421875 
Q 22.3125 -1.421875 17.546875 -0.640625 
Q 12.796875 0.140625 7.71875 1.703125 
L 7.71875 11.625 
Q 12.109375 9.234375 16.796875 8.0625 
Q 21.484375 6.890625 26.703125 6.890625 
Q 35.15625 6.890625 40.078125 11.328125 
Q 45.015625 15.765625 45.015625 23.390625 
Q 45.015625 31 40.078125 35.4375 
Q 35.15625 39.890625 26.703125 39.890625 
Q 22.75 39.890625 18.8125 39.015625 
Q 14.890625 38.140625 10.796875 36.28125 
z
" id="DejaVuSans-53"/>
      <path d="M 45.40625 46.390625 
L 45.40625 75.984375 
L 54.390625 75.984375 
L 54.390625 0 
L 45.40625 0 
L 45.40625 8.203125 
Q 42.578125 3.328125 38.25 0.953125 
Q 33.9375 -1.421875 27.875 -1.421875 
Q 17.96875 -1.421875 11.734375 6.484375 
Q 5.515625 14.40625 5.515625 27.296875 
Q 5.515625 40.1875 11.734375 48.09375 
Q 17.96875 56 27.875 56 
Q 33.9375 56 38.25 53.625 
Q 42.578125 51.265625 45.40625 46.390625 
z
M 14.796875 27.296875 
Q 14.796875 17.390625 18.875 11.75 
Q 22.953125 6.109375 30.078125 6.109375 
Q 37.203125 6.109375 41.296875 11.75 
Q 45.40625 17.390625 45.40625 27.296875 
Q 45.40625 37.203125 41.296875 42.84375 
Q 37.203125 48.484375 30.078125 48.484375 
Q 22.953125 48.484375 18.875 42.84375 
Q 14.796875 37.203125 14.796875 27.296875 
z
" id="DejaVuSans-100"/>
      <path d="M 37.109375 75.984375 
L 37.109375 68.5 
L 28.515625 68.5 
Q 23.6875 68.5 21.796875 66.546875 
Q 19.921875 64.59375 19.921875 59.515625 
L 19.921875 54.6875 
L 34.71875 54.6875 
L 34.71875 47.703125 
L 19.921875 47.703125 
L 19.921875 0 
L 10.890625 0 
L 10.890625 47.703125 
L 2.296875 47.703125 
L 2.296875 54.6875 
L 10.890625 54.6875 
L 10.890625 58.5 
Q 10.890625 67.625 15.140625 71.796875 
Q 19.390625 75.984375 28.609375 75.984375 
z
" id="DejaVuSans-102"/>
      <path d="M 14.796875 27.296875 
Q 14.796875 17.390625 18.875 11.75 
Q 22.953125 6.109375 30.078125 6.109375 
Q 37.203125 6.109375 41.296875 11.75 
Q 45.40625 17.390625 45.40625 27.296875 
Q 45.40625 37.203125 41.296875 42.84375 
Q 37.203125 48.484375 30.078125 48.484375 
Q 22.953125 48.484375 18.875 42.84375 
Q 14.796875 37.203125 14.796875 27.296875 
z
M 45.40625 8.203125 
Q 42.578125 3.328125 38.25 0.953125 
Q 33.9375 -1.421875 27.875 -1.421875 
Q 17.96875 -1.421875 11.734375 6.484375 
Q 5.515625 14.40625 5.515625 27.296875 
Q 5.515625 40.1875 11.734375 48.09375 
Q 17.96875 56 27.875 56 
Q 33.9375 56 38.25 53.625 
Q 42.578125 51.265625 45.40625 46.390625 
L 45.40625 54.6875 
L 54.390625 54.6875 
L 54.390625 -20.796875 
L 45.40625 -20.796875 
z
" id="DejaVuSans-113"/>
      <path d="M 4.203125 54.6875 
L 13.1875 54.6875 
L 24.421875 12.015625 
L 35.59375 54.6875 
L 46.1875 54.6875 
L 57.421875 12.015625 
L 68.609375 54.6875 
L 77.59375 54.6875 
L 63.28125 0 
L 52.6875 0 
L 40.921875 44.828125 
L 29.109375 0 
L 18.5 0 
z
" id="DejaVuSans-119"/>
      <path d="M 18.109375 8.203125 
L 18.109375 -20.796875 
L 9.078125 -20.796875 
L 9.078125 54.6875 
L 18.109375 54.6875 
L 18.109375 46.390625 
Q 20.953125 51.265625 25.265625 53.625 
Q 29.59375 56 35.59375 56 
Q 45.5625 56 51.78125 48.09375 
Q 58.015625 40.1875 58.015625 27.296875 
Q 58.015625 14.40625 51.78125 6.484375 
Q 45.5625 -1.421875 35.59375 -1.421875 
Q 29.59375 -1.421875 25.265625 0.953125 
Q 20.953125 3.328125 18.109375 8.203125 
z
M 48.6875 27.296875 
Q 48.6875 37.203125 44.609375 42.84375 
Q 40.53125 48.484375 33.40625 48.484375 
Q 26.265625 48.484375 22.1875 42.84375 
Q 18.109375 37.203125 18.109375 27.296875 
Q 18.109375 17.390625 22.1875 11.75 
Q 26.265625 6.109375 33.40625 6.109375 
Q 40.53125 6.109375 44.609375 11.75 
Q 48.6875 17.390625 48.6875 27.296875 
z
" id="DejaVuSans-112"/>
      <path d="M 18.3125 70.21875 
L 18.3125 54.6875 
L 36.8125 54.6875 
L 36.8125 47.703125 
L 18.3125 47.703125 
L 18.3125 18.015625 
Q 18.3125 11.328125 20.140625 9.421875 
Q 21.96875 7.515625 27.59375 7.515625 
L 36.8125 7.515625 
L 36.8125 0 
L 27.59375 0 
Q 17.1875 0 13.234375 3.875 
Q 9.28125 7.765625 9.28125 18.015625 
L 9.28125 47.703125 
L 2.6875 47.703125 
L 2.6875 54.6875 
L 9.28125 54.6875 
L 9.28125 70.21875 
z
" id="DejaVuSans-116"/>
      <path d="M 8.203125 72.90625 
L 55.078125 72.90625 
L 55.078125 68.703125 
L 28.609375 0 
L 18.3125 0 
L 43.21875 64.59375 
L 8.203125 64.59375 
z
" id="DejaVuSans-55"/>
     </defs>
     <use xlink:href="#DejaVuSans-50"/>
     <use x="63.623047" xlink:href="#DejaVuSans-48"/>
     <use x="127.246094" xlink:href="#DejaVuSans-50"/>
     <use x="190.869141" xlink:href="#DejaVuSans-49"/>
     <use x="254.492188" xlink:href="#DejaVuSans-95"/>
     <use x="304.492188" xlink:href="#DejaVuSans-48"/>
     <use x="368.115234" xlink:href="#DejaVuSans-53"/>
     <use x="431.738281" xlink:href="#DejaVuSans-95"/>
     <use x="481.738281" xlink:href="#DejaVuSans-99"/>
     <use x="536.71875" xlink:href="#DejaVuSans-111"/>
     <use x="597.900391" xlink:href="#DejaVuSans-100"/>
     <use x="661.376953" xlink:href="#DejaVuSans-101"/>
     <use x="722.900391" xlink:href="#DejaVuSans-95"/>
     <use x="772.900391" xlink:href="#DejaVuSans-50"/>
     <use x="836.523438" xlink:href="#DejaVuSans-48"/>
     <use x="900.146484" xlink:href="#DejaVuSans-50"/>
     <use x="963.769531" xlink:href="#DejaVuSans-48"/>
     <use x="1027.392578" xlink:href="#DejaVuSans-95"/>
     <use x="1077.392578" xlink:href="#DejaVuSans-49"/>
     <use x="1141.015625" xlink:href="#DejaVuSans-50"/>
     <use x="1204.638672" xlink:href="#DejaVuSans-95"/>
     <use x="1254.638672" xlink:href="#DejaVuSans-102"/>
     <use x="1289.84375" xlink:href="#DejaVuSans-97"/>
     <use x="1351.123047" xlink:href="#DejaVuSans-105"/>
     <use x="1378.90625" xlink:href="#DejaVuSans-114"/>
     <use x="1420.019531" xlink:href="#DejaVuSans-115"/>
     <use x="1472.119141" xlink:href="#DejaVuSans-101"/>
     <use x="1533.642578" xlink:href="#DejaVuSans-113"/>
     <use x="1597.119141" xlink:href="#DejaVuSans-95"/>
     <use x="1647.119141" xlink:href="#DejaVuSans-115"/>
     <use x="1699.21875" xlink:href="#DejaVuSans-119"/>
     <use x="1781.005859" xlink:href="#DejaVuSans-105"/>
     <use x="1808.789062" xlink:href="#DejaVuSans-115"/>
     <use x="1860.888672" xlink:href="#DejaVuSans-115"/>
     <use x="1912.988281" xlink:href="#DejaVuSans-112"/>
     <use x="1976.464844" xlink:href="#DejaVuSans-114"/>
     <use x="2015.328125" xlink:href="#DejaVuSans-111"/>
     <use x="2076.509766" xlink:href="#DejaVuSans-116"/>
     <use x="2115.71875" xlink:href="#DejaVuSans-95"/>
     <use x="2165.71875" xlink:href="#DejaVuSans-105"/>
     <use x="2193.501953" xlink:href="#DejaVuSans-110"/>
     <use x="2256.880859" xlink:href="#DejaVuSans-110"/>
     <use x="2320.259766" xlink:href="#DejaVuSans-101"/>
     <use x="2381.783203" xlink:href="#DejaVuSans-114"/>
     <use x="2421.146484" xlink:href="#DejaVuSans-100"/>
     <use x="2484.623047" xlink:href="#DejaVuSans-55"/>
     <use x="2548.246094" xlink:href="#DejaVuSans-54"/>
     <use x="2611.869141" xlink:href="#DejaVuSans-56"/>
    </g>
   </g>
   <g id="legend_1">
    <g id="line2d_19">
     <path d="M 86.753462 232.404675 
L 112.753462 232.404675 
" style="fill:none;stroke:#e41a1c;stroke-linecap:round;stroke-width:2.25;"/>
    </g>
    <g id="line2d_20"/>
    <g id="text_16">
     <!-- BP, Fmax = 0.55 -->
     <g style="fill:#262626;" transform="translate(123.153462 236.954675)scale(0.13 -0.13)">
      <defs>
       <path d="M 19.671875 34.8125 
L 19.671875 8.109375 
L 35.5 8.109375 
Q 43.453125 8.109375 47.28125 11.40625 
Q 51.125 14.703125 51.125 21.484375 
Q 51.125 28.328125 47.28125 31.5625 
Q 43.453125 34.8125 35.5 34.8125 
z
M 19.671875 64.796875 
L 19.671875 42.828125 
L 34.28125 42.828125 
Q 41.5 42.828125 45.03125 45.53125 
Q 48.578125 48.25 48.578125 53.8125 
Q 48.578125 59.328125 45.03125 62.0625 
Q 41.5 64.796875 34.28125 64.796875 
z
M 9.8125 72.90625 
L 35.015625 72.90625 
Q 46.296875 72.90625 52.390625 68.21875 
Q 58.5 63.53125 58.5 54.890625 
Q 58.5 48.1875 55.375 44.234375 
Q 52.25 40.28125 46.1875 39.3125 
Q 53.46875 37.75 57.5 32.78125 
Q 61.53125 27.828125 61.53125 20.40625 
Q 61.53125 10.640625 54.890625 5.3125 
Q 48.25 0 35.984375 0 
L 9.8125 0 
z
" id="DejaVuSans-66"/>
       <path d="M 11.71875 12.40625 
L 22.015625 12.40625 
L 22.015625 4 
L 14.015625 -11.625 
L 7.71875 -11.625 
L 11.71875 4 
z
" id="DejaVuSans-44"/>
       <path id="DejaVuSans-32"/>
       <path d="M 9.8125 72.90625 
L 51.703125 72.90625 
L 51.703125 64.59375 
L 19.671875 64.59375 
L 19.671875 43.109375 
L 48.578125 43.109375 
L 48.578125 34.8125 
L 19.671875 34.8125 
L 19.671875 0 
L 9.8125 0 
z
" id="DejaVuSans-70"/>
       <path d="M 52 44.1875 
Q 55.375 50.25 60.0625 53.125 
Q 64.75 56 71.09375 56 
Q 79.640625 56 84.28125 50.015625 
Q 88.921875 44.046875 88.921875 33.015625 
L 88.921875 0 
L 79.890625 0 
L 79.890625 32.71875 
Q 79.890625 40.578125 77.09375 44.375 
Q 74.3125 48.1875 68.609375 48.1875 
Q 61.625 48.1875 57.5625 43.546875 
Q 53.515625 38.921875 53.515625 30.90625 
L 53.515625 0 
L 44.484375 0 
L 44.484375 32.71875 
Q 44.484375 40.625 41.703125 44.40625 
Q 38.921875 48.1875 33.109375 48.1875 
Q 26.21875 48.1875 22.15625 43.53125 
Q 18.109375 38.875 18.109375 30.90625 
L 18.109375 0 
L 9.078125 0 
L 9.078125 54.6875 
L 18.109375 54.6875 
L 18.109375 46.1875 
Q 21.1875 51.21875 25.484375 53.609375 
Q 29.78125 56 35.6875 56 
Q 41.65625 56 45.828125 52.96875 
Q 50 49.953125 52 44.1875 
z
" id="DejaVuSans-109"/>
       <path d="M 54.890625 54.6875 
L 35.109375 28.078125 
L 55.90625 0 
L 45.3125 0 
L 29.390625 21.484375 
L 13.484375 0 
L 2.875 0 
L 24.125 28.609375 
L 4.6875 54.6875 
L 15.28125 54.6875 
L 29.78125 35.203125 
L 44.28125 54.6875 
z
" id="DejaVuSans-120"/>
       <path d="M 10.59375 45.40625 
L 73.1875 45.40625 
L 73.1875 37.203125 
L 10.59375 37.203125 
z
M 10.59375 25.484375 
L 73.1875 25.484375 
L 73.1875 17.1875 
L 10.59375 17.1875 
z
" id="DejaVuSans-61"/>
      </defs>
      <use xlink:href="#DejaVuSans-66"/>
      <use x="68.603516" xlink:href="#DejaVuSans-80"/>
      <use x="128.90625" xlink:href="#DejaVuSans-44"/>
      <use x="160.693359" xlink:href="#DejaVuSans-32"/>
      <use x="192.480469" xlink:href="#DejaVuSans-70"/>
      <use x="250" xlink:href="#DejaVuSans-109"/>
      <use x="347.412109" xlink:href="#DejaVuSans-97"/>
      <use x="408.691406" xlink:href="#DejaVuSans-120"/>
      <use x="467.871094" xlink:href="#DejaVuSans-32"/>
      <use x="499.658203" xlink:href="#DejaVuSans-61"/>
      <use x="583.447266" xlink:href="#DejaVuSans-32"/>
      <use x="615.234375" xlink:href="#DejaVuSans-48"/>
      <use x="678.857422" xlink:href="#DejaVuSans-46"/>
      <use x="710.644531" xlink:href="#DejaVuSans-53"/>
      <use x="774.267578" xlink:href="#DejaVuSans-53"/>
     </g>
    </g>
    <g id="line2d_21">
     <path d="M 86.753462 251.486237 
L 112.753462 251.486237 
" style="fill:none;stroke:#377eb8;stroke-linecap:round;stroke-width:2.25;"/>
    </g>
    <g id="line2d_22"/>
    <g id="text_17">
     <!-- MF, Fmax = 0.62 -->
     <g style="fill:#262626;" transform="translate(123.153462 256.036237)scale(0.13 -0.13)">
      <defs>
       <path d="M 9.8125 72.90625 
L 24.515625 72.90625 
L 43.109375 23.296875 
L 61.8125 72.90625 
L 76.515625 72.90625 
L 76.515625 0 
L 66.890625 0 
L 66.890625 64.015625 
L 48.09375 14.015625 
L 38.1875 14.015625 
L 19.390625 64.015625 
L 19.390625 0 
L 9.8125 0 
z
" id="DejaVuSans-77"/>
      </defs>
      <use xlink:href="#DejaVuSans-77"/>
      <use x="86.279297" xlink:href="#DejaVuSans-70"/>
      <use x="143.798828" xlink:href="#DejaVuSans-44"/>
      <use x="175.585938" xlink:href="#DejaVuSans-32"/>
      <use x="207.373047" xlink:href="#DejaVuSans-70"/>
      <use x="264.892578" xlink:href="#DejaVuSans-109"/>
      <use x="362.304688" xlink:href="#DejaVuSans-97"/>
      <use x="423.583984" xlink:href="#DejaVuSans-120"/>
      <use x="482.763672" xlink:href="#DejaVuSans-32"/>
      <use x="514.550781" xlink:href="#DejaVuSans-61"/>
      <use x="598.339844" xlink:href="#DejaVuSans-32"/>
      <use x="630.126953" xlink:href="#DejaVuSans-48"/>
      <use x="693.75" xlink:href="#DejaVuSans-46"/>
      <use x="725.537109" xlink:href="#DejaVuSans-54"/>
      <use x="789.160156" xlink:href="#DejaVuSans-50"/>
     </g>
    </g>
    <g id="line2d_23">
     <path d="M 86.753462 270.5678 
L 112.753462 270.5678 
" style="fill:none;stroke:#4daf4a;stroke-linecap:round;stroke-width:2.25;"/>
    </g>
    <g id="line2d_24"/>
    <g id="text_18">
     <!-- CC, Fmax = 0.64 -->
     <g style="fill:#262626;" transform="translate(123.153462 275.1178)scale(0.13 -0.13)">
      <defs>
       <path d="M 64.40625 67.28125 
L 64.40625 56.890625 
Q 59.421875 61.53125 53.78125 63.8125 
Q 48.140625 66.109375 41.796875 66.109375 
Q 29.296875 66.109375 22.65625 58.46875 
Q 16.015625 50.828125 16.015625 36.375 
Q 16.015625 21.96875 22.65625 14.328125 
Q 29.296875 6.6875 41.796875 6.6875 
Q 48.140625 6.6875 53.78125 8.984375 
Q 59.421875 11.28125 64.40625 15.921875 
L 64.40625 5.609375 
Q 59.234375 2.09375 53.4375 0.328125 
Q 47.65625 -1.421875 41.21875 -1.421875 
Q 24.65625 -1.421875 15.125 8.703125 
Q 5.609375 18.84375 5.609375 36.375 
Q 5.609375 53.953125 15.125 64.078125 
Q 24.65625 74.21875 41.21875 74.21875 
Q 47.75 74.21875 53.53125 72.484375 
Q 59.328125 70.75 64.40625 67.28125 
z
" id="DejaVuSans-67"/>
      </defs>
      <use xlink:href="#DejaVuSans-67"/>
      <use x="69.824219" xlink:href="#DejaVuSans-67"/>
      <use x="139.648438" xlink:href="#DejaVuSans-44"/>
      <use x="171.435547" xlink:href="#DejaVuSans-32"/>
      <use x="203.222656" xlink:href="#DejaVuSans-70"/>
      <use x="260.742188" xlink:href="#DejaVuSans-109"/>
      <use x="358.154297" xlink:href="#DejaVuSans-97"/>
      <use x="419.433594" xlink:href="#DejaVuSans-120"/>
      <use x="478.613281" xlink:href="#DejaVuSans-32"/>
      <use x="510.400391" xlink:href="#DejaVuSans-61"/>
      <use x="594.189453" xlink:href="#DejaVuSans-32"/>
      <use x="625.976562" xlink:href="#DejaVuSans-48"/>
      <use x="689.599609" xlink:href="#DejaVuSans-46"/>
      <use x="721.386719" xlink:href="#DejaVuSans-54"/>
      <use x="785.009766" xlink:href="#DejaVuSans-52"/>
     </g>
    </g>
   </g>
  </g>
 </g>
 <defs>
  <clipPath id="p560260ebb3">
   <rect height="268.542787" width="265.506538" x="75.053462" y="20.978606"/>
  </clipPath>
 </defs>
</svg>
