<?xml version="1.0" encoding="utf-8" standalone="no"?>
<!DOCTYPE svg PUBLIC "-//W3C//DTD SVG 1.1//EN"
  "http://www.w3.org/Graphics/SVG/1.1/DTD/svg11.dtd">
<!-- Created with matplotlib (https://matplotlib.org/) -->
<svg height="360pt" version="1.1" viewBox="0 0 360 360" width="360pt" xmlns="http://www.w3.org/2000/svg" xmlns:xlink="http://www.w3.org/1999/xlink">
 <metadata>
  <rdf:RDF xmlns:cc="http://creativecommons.org/ns#" xmlns:dc="http://purl.org/dc/elements/1.1/" xmlns:rdf="http://www.w3.org/1999/02/22-rdf-syntax-ns#">
   <cc:Work>
    <dc:type rdf:resource="http://purl.org/dc/dcmitype/StillImage"/>
    <dc:date>2021-06-01T13:25:48.208196</dc:date>
    <dc:format>image/svg+xml</dc:format>
    <dc:creator>
     <cc:Agent>
      <dc:title>Matplotlib v3.3.4, https://matplotlib.org/</dc:title>
     </cc:Agent>
    </dc:creator>
   </cc:Work>
  </rdf:RDF>
 </metadata>
 <defs>
  <style type="text/css">*{stroke-linecap:butt;stroke-linejoin:round;}</style>
 </defs>
 <g id="figure_1">
  <g id="patch_1">
   <path d="M 0 360 
L 360 360 
L 360 0 
L 0 0 
z
" style="fill:#ffffff;"/>
  </g>
  <g id="axes_1">
   <g id="patch_2">
    <path d="M 76.774934 286.963296 
L 340.56 286.963296 
L 340.56 23.536704 
L 76.774934 23.536704 
z
" style="fill:#ffffff;"/>
   </g>
   <g id="matplotlib.axis_1">
    <g id="xtick_1">
     <g id="line2d_1">
      <defs>
       <path d="M 0 0 
L 0 9 
" id="m2dd8183729" style="stroke:#262626;stroke-width:1.875;"/>
      </defs>
      <g>
       <use style="fill:#262626;stroke:#262626;stroke-width:1.875;" x="88.718571" xlink:href="#m2dd8183729" y="286.963296"/>
      </g>
     </g>
     <g id="text_1">
      <!-- 0.0 -->
      <g style="fill:#262626;" transform="translate(75.598493 312.000718)scale(0.165 -0.165)">
       <defs>
        <path d="M 31.78125 66.40625 
Q 24.171875 66.40625 20.328125 58.90625 
Q 16.5 51.421875 16.5 36.375 
Q 16.5 21.390625 20.328125 13.890625 
Q 24.171875 6.390625 31.78125 6.390625 
Q 39.453125 6.390625 43.28125 13.890625 
Q 47.125 21.390625 47.125 36.375 
Q 47.125 51.421875 43.28125 58.90625 
Q 39.453125 66.40625 31.78125 66.40625 
z
M 31.78125 74.21875 
Q 44.046875 74.21875 50.515625 64.515625 
Q 56.984375 54.828125 56.984375 36.375 
Q 56.984375 17.96875 50.515625 8.265625 
Q 44.046875 -1.421875 31.78125 -1.421875 
Q 19.53125 -1.421875 13.0625 8.265625 
Q 6.59375 17.96875 6.59375 36.375 
Q 6.59375 54.828125 13.0625 64.515625 
Q 19.53125 74.21875 31.78125 74.21875 
z
" id="DejaVuSans-48"/>
        <path d="M 10.6875 12.40625 
L 21 12.40625 
L 21 0 
L 10.6875 0 
z
" id="DejaVuSans-46"/>
       </defs>
       <use xlink:href="#DejaVuSans-48"/>
       <use x="63.623047" xlink:href="#DejaVuSans-46"/>
       <use x="95.410156" xlink:href="#DejaVuSans-48"/>
      </g>
     </g>
    </g>
    <g id="xtick_2">
     <g id="line2d_2">
      <g>
       <use style="fill:#262626;stroke:#262626;stroke-width:1.875;" x="136.688811" xlink:href="#m2dd8183729" y="286.963296"/>
      </g>
     </g>
     <g id="text_2">
      <!-- 0.2 -->
      <g style="fill:#262626;" transform="translate(123.568733 312.000718)scale(0.165 -0.165)">
       <defs>
        <path d="M 19.1875 8.296875 
L 53.609375 8.296875 
L 53.609375 0 
L 7.328125 0 
L 7.328125 8.296875 
Q 12.9375 14.109375 22.625 23.890625 
Q 32.328125 33.6875 34.8125 36.53125 
Q 39.546875 41.84375 41.421875 45.53125 
Q 43.3125 49.21875 43.3125 52.78125 
Q 43.3125 58.59375 39.234375 62.25 
Q 35.15625 65.921875 28.609375 65.921875 
Q 23.96875 65.921875 18.8125 64.3125 
Q 13.671875 62.703125 7.8125 59.421875 
L 7.8125 69.390625 
Q 13.765625 71.78125 18.9375 73 
Q 24.125 74.21875 28.421875 74.21875 
Q 39.75 74.21875 46.484375 68.546875 
Q 53.21875 62.890625 53.21875 53.421875 
Q 53.21875 48.921875 51.53125 44.890625 
Q 49.859375 40.875 45.40625 35.40625 
Q 44.1875 33.984375 37.640625 27.21875 
Q 31.109375 20.453125 19.1875 8.296875 
z
" id="DejaVuSans-50"/>
       </defs>
       <use xlink:href="#DejaVuSans-48"/>
       <use x="63.623047" xlink:href="#DejaVuSans-46"/>
       <use x="95.410156" xlink:href="#DejaVuSans-50"/>
      </g>
     </g>
    </g>
    <g id="xtick_3">
     <g id="line2d_3">
      <g>
       <use style="fill:#262626;stroke:#262626;stroke-width:1.875;" x="184.659051" xlink:href="#m2dd8183729" y="286.963296"/>
      </g>
     </g>
     <g id="text_3">
      <!-- 0.4 -->
      <g style="fill:#262626;" transform="translate(171.538973 312.000718)scale(0.165 -0.165)">
       <defs>
        <path d="M 37.796875 64.3125 
L 12.890625 25.390625 
L 37.796875 25.390625 
z
M 35.203125 72.90625 
L 47.609375 72.90625 
L 47.609375 25.390625 
L 58.015625 25.390625 
L 58.015625 17.1875 
L 47.609375 17.1875 
L 47.609375 0 
L 37.796875 0 
L 37.796875 17.1875 
L 4.890625 17.1875 
L 4.890625 26.703125 
z
" id="DejaVuSans-52"/>
       </defs>
       <use xlink:href="#DejaVuSans-48"/>
       <use x="63.623047" xlink:href="#DejaVuSans-46"/>
       <use x="95.410156" xlink:href="#DejaVuSans-52"/>
      </g>
     </g>
    </g>
    <g id="xtick_4">
     <g id="line2d_4">
      <g>
       <use style="fill:#262626;stroke:#262626;stroke-width:1.875;" x="232.62929" xlink:href="#m2dd8183729" y="286.963296"/>
      </g>
     </g>
     <g id="text_4">
      <!-- 0.6 -->
      <g style="fill:#262626;" transform="translate(219.509212 312.000718)scale(0.165 -0.165)">
       <defs>
        <path d="M 33.015625 40.375 
Q 26.375 40.375 22.484375 35.828125 
Q 18.609375 31.296875 18.609375 23.390625 
Q 18.609375 15.53125 22.484375 10.953125 
Q 26.375 6.390625 33.015625 6.390625 
Q 39.65625 6.390625 43.53125 10.953125 
Q 47.40625 15.53125 47.40625 23.390625 
Q 47.40625 31.296875 43.53125 35.828125 
Q 39.65625 40.375 33.015625 40.375 
z
M 52.59375 71.296875 
L 52.59375 62.3125 
Q 48.875 64.0625 45.09375 64.984375 
Q 41.3125 65.921875 37.59375 65.921875 
Q 27.828125 65.921875 22.671875 59.328125 
Q 17.53125 52.734375 16.796875 39.40625 
Q 19.671875 43.65625 24.015625 45.921875 
Q 28.375 48.1875 33.59375 48.1875 
Q 44.578125 48.1875 50.953125 41.515625 
Q 57.328125 34.859375 57.328125 23.390625 
Q 57.328125 12.15625 50.6875 5.359375 
Q 44.046875 -1.421875 33.015625 -1.421875 
Q 20.359375 -1.421875 13.671875 8.265625 
Q 6.984375 17.96875 6.984375 36.375 
Q 6.984375 53.65625 15.1875 63.9375 
Q 23.390625 74.21875 37.203125 74.21875 
Q 40.921875 74.21875 44.703125 73.484375 
Q 48.484375 72.75 52.59375 71.296875 
z
" id="DejaVuSans-54"/>
       </defs>
       <use xlink:href="#DejaVuSans-48"/>
       <use x="63.623047" xlink:href="#DejaVuSans-46"/>
       <use x="95.410156" xlink:href="#DejaVuSans-54"/>
      </g>
     </g>
    </g>
    <g id="xtick_5">
     <g id="line2d_5">
      <g>
       <use style="fill:#262626;stroke:#262626;stroke-width:1.875;" x="280.59953" xlink:href="#m2dd8183729" y="286.963296"/>
      </g>
     </g>
     <g id="text_5">
      <!-- 0.8 -->
      <g style="fill:#262626;" transform="translate(267.479452 312.000718)scale(0.165 -0.165)">
       <defs>
        <path d="M 31.78125 34.625 
Q 24.75 34.625 20.71875 30.859375 
Q 16.703125 27.09375 16.703125 20.515625 
Q 16.703125 13.921875 20.71875 10.15625 
Q 24.75 6.390625 31.78125 6.390625 
Q 38.8125 6.390625 42.859375 10.171875 
Q 46.921875 13.96875 46.921875 20.515625 
Q 46.921875 27.09375 42.890625 30.859375 
Q 38.875 34.625 31.78125 34.625 
z
M 21.921875 38.8125 
Q 15.578125 40.375 12.03125 44.71875 
Q 8.5 49.078125 8.5 55.328125 
Q 8.5 64.0625 14.71875 69.140625 
Q 20.953125 74.21875 31.78125 74.21875 
Q 42.671875 74.21875 48.875 69.140625 
Q 55.078125 64.0625 55.078125 55.328125 
Q 55.078125 49.078125 51.53125 44.71875 
Q 48 40.375 41.703125 38.8125 
Q 48.828125 37.15625 52.796875 32.3125 
Q 56.78125 27.484375 56.78125 20.515625 
Q 56.78125 9.90625 50.3125 4.234375 
Q 43.84375 -1.421875 31.78125 -1.421875 
Q 19.734375 -1.421875 13.25 4.234375 
Q 6.78125 9.90625 6.78125 20.515625 
Q 6.78125 27.484375 10.78125 32.3125 
Q 14.796875 37.15625 21.921875 38.8125 
z
M 18.3125 54.390625 
Q 18.3125 48.734375 21.84375 45.5625 
Q 25.390625 42.390625 31.78125 42.390625 
Q 38.140625 42.390625 41.71875 45.5625 
Q 45.3125 48.734375 45.3125 54.390625 
Q 45.3125 60.0625 41.71875 63.234375 
Q 38.140625 66.40625 31.78125 66.40625 
Q 25.390625 66.40625 21.84375 63.234375 
Q 18.3125 60.0625 18.3125 54.390625 
z
" id="DejaVuSans-56"/>
       </defs>
       <use xlink:href="#DejaVuSans-48"/>
       <use x="63.623047" xlink:href="#DejaVuSans-46"/>
       <use x="95.410156" xlink:href="#DejaVuSans-56"/>
      </g>
     </g>
    </g>
    <g id="xtick_6">
     <g id="line2d_6">
      <g>
       <use style="fill:#262626;stroke:#262626;stroke-width:1.875;" x="328.56977" xlink:href="#m2dd8183729" y="286.963296"/>
      </g>
     </g>
     <g id="text_6">
      <!-- 1.0 -->
      <g style="fill:#262626;" transform="translate(315.449692 312.000718)scale(0.165 -0.165)">
       <defs>
        <path d="M 12.40625 8.296875 
L 28.515625 8.296875 
L 28.515625 63.921875 
L 10.984375 60.40625 
L 10.984375 69.390625 
L 28.421875 72.90625 
L 38.28125 72.90625 
L 38.28125 8.296875 
L 54.390625 8.296875 
L 54.390625 0 
L 12.40625 0 
z
" id="DejaVuSans-49"/>
       </defs>
       <use xlink:href="#DejaVuSans-49"/>
       <use x="63.623047" xlink:href="#DejaVuSans-46"/>
       <use x="95.410156" xlink:href="#DejaVuSans-48"/>
      </g>
     </g>
    </g>
    <g id="text_7">
     <!-- Recall -->
     <g style="fill:#262626;" transform="translate(181.81653 333.109389)scale(0.18 -0.18)">
      <defs>
       <path d="M 44.390625 34.1875 
Q 47.5625 33.109375 50.5625 29.59375 
Q 53.5625 26.078125 56.59375 19.921875 
L 66.609375 0 
L 56 0 
L 46.6875 18.703125 
Q 43.0625 26.03125 39.671875 28.421875 
Q 36.28125 30.8125 30.421875 30.8125 
L 19.671875 30.8125 
L 19.671875 0 
L 9.8125 0 
L 9.8125 72.90625 
L 32.078125 72.90625 
Q 44.578125 72.90625 50.734375 67.671875 
Q 56.890625 62.453125 56.890625 51.90625 
Q 56.890625 45.015625 53.6875 40.46875 
Q 50.484375 35.9375 44.390625 34.1875 
z
M 19.671875 64.796875 
L 19.671875 38.921875 
L 32.078125 38.921875 
Q 39.203125 38.921875 42.84375 42.21875 
Q 46.484375 45.515625 46.484375 51.90625 
Q 46.484375 58.296875 42.84375 61.546875 
Q 39.203125 64.796875 32.078125 64.796875 
z
" id="DejaVuSans-82"/>
       <path d="M 56.203125 29.59375 
L 56.203125 25.203125 
L 14.890625 25.203125 
Q 15.484375 15.921875 20.484375 11.0625 
Q 25.484375 6.203125 34.421875 6.203125 
Q 39.59375 6.203125 44.453125 7.46875 
Q 49.3125 8.734375 54.109375 11.28125 
L 54.109375 2.78125 
Q 49.265625 0.734375 44.1875 -0.34375 
Q 39.109375 -1.421875 33.890625 -1.421875 
Q 20.796875 -1.421875 13.15625 6.1875 
Q 5.515625 13.8125 5.515625 26.8125 
Q 5.515625 40.234375 12.765625 48.109375 
Q 20.015625 56 32.328125 56 
Q 43.359375 56 49.78125 48.890625 
Q 56.203125 41.796875 56.203125 29.59375 
z
M 47.21875 32.234375 
Q 47.125 39.59375 43.09375 43.984375 
Q 39.0625 48.390625 32.421875 48.390625 
Q 24.90625 48.390625 20.390625 44.140625 
Q 15.875 39.890625 15.1875 32.171875 
z
" id="DejaVuSans-101"/>
       <path d="M 48.78125 52.59375 
L 48.78125 44.1875 
Q 44.96875 46.296875 41.140625 47.34375 
Q 37.3125 48.390625 33.40625 48.390625 
Q 24.65625 48.390625 19.8125 42.84375 
Q 14.984375 37.3125 14.984375 27.296875 
Q 14.984375 17.28125 19.8125 11.734375 
Q 24.65625 6.203125 33.40625 6.203125 
Q 37.3125 6.203125 41.140625 7.25 
Q 44.96875 8.296875 48.78125 10.40625 
L 48.78125 2.09375 
Q 45.015625 0.34375 40.984375 -0.53125 
Q 36.96875 -1.421875 32.421875 -1.421875 
Q 20.0625 -1.421875 12.78125 6.34375 
Q 5.515625 14.109375 5.515625 27.296875 
Q 5.515625 40.671875 12.859375 48.328125 
Q 20.21875 56 33.015625 56 
Q 37.15625 56 41.109375 55.140625 
Q 45.0625 54.296875 48.78125 52.59375 
z
" id="DejaVuSans-99"/>
       <path d="M 34.28125 27.484375 
Q 23.390625 27.484375 19.1875 25 
Q 14.984375 22.515625 14.984375 16.5 
Q 14.984375 11.71875 18.140625 8.90625 
Q 21.296875 6.109375 26.703125 6.109375 
Q 34.1875 6.109375 38.703125 11.40625 
Q 43.21875 16.703125 43.21875 25.484375 
L 43.21875 27.484375 
z
M 52.203125 31.203125 
L 52.203125 0 
L 43.21875 0 
L 43.21875 8.296875 
Q 40.140625 3.328125 35.546875 0.953125 
Q 30.953125 -1.421875 24.3125 -1.421875 
Q 15.921875 -1.421875 10.953125 3.296875 
Q 6 8.015625 6 15.921875 
Q 6 25.140625 12.171875 29.828125 
Q 18.359375 34.515625 30.609375 34.515625 
L 43.21875 34.515625 
L 43.21875 35.40625 
Q 43.21875 41.609375 39.140625 45 
Q 35.0625 48.390625 27.6875 48.390625 
Q 23 48.390625 18.546875 47.265625 
Q 14.109375 46.140625 10.015625 43.890625 
L 10.015625 52.203125 
Q 14.9375 54.109375 19.578125 55.046875 
Q 24.21875 56 28.609375 56 
Q 40.484375 56 46.34375 49.84375 
Q 52.203125 43.703125 52.203125 31.203125 
z
" id="DejaVuSans-97"/>
       <path d="M 9.421875 75.984375 
L 18.40625 75.984375 
L 18.40625 0 
L 9.421875 0 
z
" id="DejaVuSans-108"/>
      </defs>
      <use xlink:href="#DejaVuSans-82"/>
      <use x="64.982422" xlink:href="#DejaVuSans-101"/>
      <use x="126.505859" xlink:href="#DejaVuSans-99"/>
      <use x="181.486328" xlink:href="#DejaVuSans-97"/>
      <use x="242.765625" xlink:href="#DejaVuSans-108"/>
      <use x="270.548828" xlink:href="#DejaVuSans-108"/>
     </g>
    </g>
   </g>
   <g id="matplotlib.axis_2">
    <g id="ytick_1">
     <g id="line2d_7">
      <defs>
       <path d="M 0 0 
L -9 0 
" id="m8c5fbab1ef" style="stroke:#262626;stroke-width:1.875;"/>
      </defs>
      <g>
       <use style="fill:#262626;stroke:#262626;stroke-width:1.875;" x="76.774934" xlink:href="#m8c5fbab1ef" y="275.361839"/>
      </g>
     </g>
     <g id="text_8">
      <!-- 0.0 -->
      <g style="fill:#262626;" transform="translate(38.034778 281.63055)scale(0.165 -0.165)">
       <use xlink:href="#DejaVuSans-48"/>
       <use x="63.623047" xlink:href="#DejaVuSans-46"/>
       <use x="95.410156" xlink:href="#DejaVuSans-48"/>
      </g>
     </g>
    </g>
    <g id="ytick_2">
     <g id="line2d_8">
      <g>
       <use style="fill:#262626;stroke:#262626;stroke-width:1.875;" x="76.774934" xlink:href="#m8c5fbab1ef" y="227.391599"/>
      </g>
     </g>
     <g id="text_9">
      <!-- 0.2 -->
      <g style="fill:#262626;" transform="translate(38.034778 233.66031)scale(0.165 -0.165)">
       <use xlink:href="#DejaVuSans-48"/>
       <use x="63.623047" xlink:href="#DejaVuSans-46"/>
       <use x="95.410156" xlink:href="#DejaVuSans-50"/>
      </g>
     </g>
    </g>
    <g id="ytick_3">
     <g id="line2d_9">
      <g>
       <use style="fill:#262626;stroke:#262626;stroke-width:1.875;" x="76.774934" xlink:href="#m8c5fbab1ef" y="179.421359"/>
      </g>
     </g>
     <g id="text_10">
      <!-- 0.4 -->
      <g style="fill:#262626;" transform="translate(38.034778 185.69007)scale(0.165 -0.165)">
       <use xlink:href="#DejaVuSans-48"/>
       <use x="63.623047" xlink:href="#DejaVuSans-46"/>
       <use x="95.410156" xlink:href="#DejaVuSans-52"/>
      </g>
     </g>
    </g>
    <g id="ytick_4">
     <g id="line2d_10">
      <g>
       <use style="fill:#262626;stroke:#262626;stroke-width:1.875;" x="76.774934" xlink:href="#m8c5fbab1ef" y="131.45112"/>
      </g>
     </g>
     <g id="text_11">
      <!-- 0.6 -->
      <g style="fill:#262626;" transform="translate(38.034778 137.719831)scale(0.165 -0.165)">
       <use xlink:href="#DejaVuSans-48"/>
       <use x="63.623047" xlink:href="#DejaVuSans-46"/>
       <use x="95.410156" xlink:href="#DejaVuSans-54"/>
      </g>
     </g>
    </g>
    <g id="ytick_5">
     <g id="line2d_11">
      <g>
       <use style="fill:#262626;stroke:#262626;stroke-width:1.875;" x="76.774934" xlink:href="#m8c5fbab1ef" y="83.48088"/>
      </g>
     </g>
     <g id="text_12">
      <!-- 0.8 -->
      <g style="fill:#262626;" transform="translate(38.034778 89.749591)scale(0.165 -0.165)">
       <use xlink:href="#DejaVuSans-48"/>
       <use x="63.623047" xlink:href="#DejaVuSans-46"/>
       <use x="95.410156" xlink:href="#DejaVuSans-56"/>
      </g>
     </g>
    </g>
    <g id="ytick_6">
     <g id="line2d_12">
      <g>
       <use style="fill:#262626;stroke:#262626;stroke-width:1.875;" x="76.774934" xlink:href="#m8c5fbab1ef" y="35.51064"/>
      </g>
     </g>
     <g id="text_13">
      <!-- 1.0 -->
      <g style="fill:#262626;" transform="translate(38.034778 41.779351)scale(0.165 -0.165)">
       <use xlink:href="#DejaVuSans-49"/>
       <use x="63.623047" xlink:href="#DejaVuSans-46"/>
       <use x="95.410156" xlink:href="#DejaVuSans-48"/>
      </g>
     </g>
    </g>
    <g id="text_14">
     <!-- Precision -->
     <g style="fill:#262626;" transform="translate(30.291341 195.402656)rotate(-90)scale(0.18 -0.18)">
      <defs>
       <path d="M 19.671875 64.796875 
L 19.671875 37.40625 
L 32.078125 37.40625 
Q 38.96875 37.40625 42.71875 40.96875 
Q 46.484375 44.53125 46.484375 51.125 
Q 46.484375 57.671875 42.71875 61.234375 
Q 38.96875 64.796875 32.078125 64.796875 
z
M 9.8125 72.90625 
L 32.078125 72.90625 
Q 44.34375 72.90625 50.609375 67.359375 
Q 56.890625 61.8125 56.890625 51.125 
Q 56.890625 40.328125 50.609375 34.8125 
Q 44.34375 29.296875 32.078125 29.296875 
L 19.671875 29.296875 
L 19.671875 0 
L 9.8125 0 
z
" id="DejaVuSans-80"/>
       <path d="M 41.109375 46.296875 
Q 39.59375 47.171875 37.8125 47.578125 
Q 36.03125 48 33.890625 48 
Q 26.265625 48 22.1875 43.046875 
Q 18.109375 38.09375 18.109375 28.8125 
L 18.109375 0 
L 9.078125 0 
L 9.078125 54.6875 
L 18.109375 54.6875 
L 18.109375 46.1875 
Q 20.953125 51.171875 25.484375 53.578125 
Q 30.03125 56 36.53125 56 
Q 37.453125 56 38.578125 55.875 
Q 39.703125 55.765625 41.0625 55.515625 
z
" id="DejaVuSans-114"/>
       <path d="M 9.421875 54.6875 
L 18.40625 54.6875 
L 18.40625 0 
L 9.421875 0 
z
M 9.421875 75.984375 
L 18.40625 75.984375 
L 18.40625 64.59375 
L 9.421875 64.59375 
z
" id="DejaVuSans-105"/>
       <path d="M 44.28125 53.078125 
L 44.28125 44.578125 
Q 40.484375 46.53125 36.375 47.5 
Q 32.28125 48.484375 27.875 48.484375 
Q 21.1875 48.484375 17.84375 46.4375 
Q 14.5 44.390625 14.5 40.28125 
Q 14.5 37.15625 16.890625 35.375 
Q 19.28125 33.59375 26.515625 31.984375 
L 29.59375 31.296875 
Q 39.15625 29.25 43.1875 25.515625 
Q 47.21875 21.78125 47.21875 15.09375 
Q 47.21875 7.46875 41.1875 3.015625 
Q 35.15625 -1.421875 24.609375 -1.421875 
Q 20.21875 -1.421875 15.453125 -0.5625 
Q 10.6875 0.296875 5.421875 2 
L 5.421875 11.28125 
Q 10.40625 8.6875 15.234375 7.390625 
Q 20.0625 6.109375 24.8125 6.109375 
Q 31.15625 6.109375 34.5625 8.28125 
Q 37.984375 10.453125 37.984375 14.40625 
Q 37.984375 18.0625 35.515625 20.015625 
Q 33.0625 21.96875 24.703125 23.78125 
L 21.578125 24.515625 
Q 13.234375 26.265625 9.515625 29.90625 
Q 5.8125 33.546875 5.8125 39.890625 
Q 5.8125 47.609375 11.28125 51.796875 
Q 16.75 56 26.8125 56 
Q 31.78125 56 36.171875 55.265625 
Q 40.578125 54.546875 44.28125 53.078125 
z
" id="DejaVuSans-115"/>
       <path d="M 30.609375 48.390625 
Q 23.390625 48.390625 19.1875 42.75 
Q 14.984375 37.109375 14.984375 27.296875 
Q 14.984375 17.484375 19.15625 11.84375 
Q 23.34375 6.203125 30.609375 6.203125 
Q 37.796875 6.203125 41.984375 11.859375 
Q 46.1875 17.53125 46.1875 27.296875 
Q 46.1875 37.015625 41.984375 42.703125 
Q 37.796875 48.390625 30.609375 48.390625 
z
M 30.609375 56 
Q 42.328125 56 49.015625 48.375 
Q 55.71875 40.765625 55.71875 27.296875 
Q 55.71875 13.875 49.015625 6.21875 
Q 42.328125 -1.421875 30.609375 -1.421875 
Q 18.84375 -1.421875 12.171875 6.21875 
Q 5.515625 13.875 5.515625 27.296875 
Q 5.515625 40.765625 12.171875 48.375 
Q 18.84375 56 30.609375 56 
z
" id="DejaVuSans-111"/>
       <path d="M 54.890625 33.015625 
L 54.890625 0 
L 45.90625 0 
L 45.90625 32.71875 
Q 45.90625 40.484375 42.875 44.328125 
Q 39.84375 48.1875 33.796875 48.1875 
Q 26.515625 48.1875 22.3125 43.546875 
Q 18.109375 38.921875 18.109375 30.90625 
L 18.109375 0 
L 9.078125 0 
L 9.078125 54.6875 
L 18.109375 54.6875 
L 18.109375 46.1875 
Q 21.34375 51.125 25.703125 53.5625 
Q 30.078125 56 35.796875 56 
Q 45.21875 56 50.046875 50.171875 
Q 54.890625 44.34375 54.890625 33.015625 
z
" id="DejaVuSans-110"/>
      </defs>
      <use xlink:href="#DejaVuSans-80"/>
      <use x="58.552734" xlink:href="#DejaVuSans-114"/>
      <use x="97.416016" xlink:href="#DejaVuSans-101"/>
      <use x="158.939453" xlink:href="#DejaVuSans-99"/>
      <use x="213.919922" xlink:href="#DejaVuSans-105"/>
      <use x="241.703125" xlink:href="#DejaVuSans-115"/>
      <use x="293.802734" xlink:href="#DejaVuSans-105"/>
      <use x="321.585938" xlink:href="#DejaVuSans-111"/>
      <use x="382.767578" xlink:href="#DejaVuSans-110"/>
     </g>
    </g>
   </g>
   <g id="line2d_13">
    <path clip-path="url(#pb8d847098f)" d="M 328.56977 274.98936 
L 328.314972 274.876446 
L 328.205892 274.832088 
L 327.77207 274.693409 
L 325.373974 273.970661 
L 325.264062 273.927311 
L 324.74947 273.755711 
L 324.096655 273.516277 
L 323.80522 273.413425 
L 322.999193 273.097314 
L 321.30304 272.469818 
L 320.960812 272.3156 
L 319.724294 271.778932 
L 319.312121 271.583927 
L 313.190316 268.853459 
L 312.040396 268.271343 
L 307.475687 265.906545 
L 307.133459 265.722441 
L 305.411493 264.717387 
L 305.191668 264.595296 
L 304.654594 264.31358 
L 304.112525 263.971164 
L 302.861019 263.216854 
L 302.028347 262.741519 
L 301.82684 262.622414 
L 299.995794 261.464656 
L 297.717603 259.867248 
L 297.400355 259.688302 
L 295.875732 258.632108 
L 289.133586 253.88298 
L 287.03442 252.221428 
L 286.727164 251.994195 
L 285.89699 251.263535 
L 283.020941 248.841294 
L 281.366421 247.526562 
L 277.111467 243.643527 
L 276.592712 243.154984 
L 273.135457 239.922322 
L 272.681651 239.851776 
L 271.366029 238.755181 
L 270.71488 238.100621 
L 269.809765 237.447573 
L 269.029551 236.670311 
L 267.05362 234.703855 
L 266.731376 234.378502 
L 261.651244 229.028753 
L 261.41643 228.826463 
L 253.826624 221.042846 
L 253.451089 220.617864 
L 252.210408 219.306639 
L 251.379401 218.40238 
L 250.075436 216.961425 
L 249.277736 215.917188 
L 247.638205 213.98024 
L 243.411561 208.322787 
L 243.032696 207.881387 
L 242.664655 207.409237 
L 241.99935 206.438667 
L 241.570523 205.956511 
L 240.735353 205.035241 
L 239.25403 203.289632 
L 238.709462 202.44517 
L 237.532896 200.778867 
L 235.089836 197.57775 
L 233.601851 195.740909 
L 232.456095 194.104553 
L 231.472709 192.759381 
L 230.927309 192.099186 
L 229.049633 189.144387 
L 225.920451 184.315777 
L 224.575686 182.102345 
L 223.53318 180.828045 
L 222.47652 178.923912 
L 215.80182 167.601397 
L 215.080726 166.407426 
L 211.696747 160.457485 
L 211.021449 158.865767 
L 210.247897 157.357287 
L 209.883187 156.598062 
L 209.001387 155.152472 
L 208.190364 153.438025 
L 206.822284 150.950076 
L 205.123633 147.398056 
L 203.176013 143.783447 
L 199.60718 136.785956 
L 196.741956 131.421606 
L 194.921734 127.784865 
L 194.353019 126.504866 
L 193.031569 124.133744 
L 191.784226 121.638839 
L 191.169714 120.266627 
L 190.416978 119.024242 
L 189.812458 117.514806 
L 189.109683 116.217393 
L 187.709129 113.374019 
L 186.987202 111.857033 
L 186.156195 110.396296 
L 184.011232 105.278617 
L 182.349218 102.087604 
L 177.673765 93.96778 
L 176.627096 92.405656 
L 174.622021 88.979525 
L 172.501205 85.442755 
L 168.297877 78.088057 
L 164.51588 72.864971 
L 163.193597 70.962473 
L 157.742925 64.133882 
L 156.309064 62.541519 
L 154.753632 61.380993 
L 151.57116 58.570383 
L 149.85419 57.412176 
L 148.158869 56.130123 
L 146.081352 54.935896 
L 144.367713 53.681085 
L 142.424257 52.529351 
L 138.34 50.73857 
L 136.399041 50.056973 
L 132.907647 48.133261 
L 131.320574 46.910225 
L 129.580289 45.998901 
L 127.677634 45.31945 
L 125.666731 44.445865 
L 123.748254 43.416914 
L 112.354802 39.024151 
L 109.566183 38.649534 
L 102.197867 37.27555 
L 96.33086 36.945001 
L 90.68118 37.428642 
L 90.68118 37.428642 
" style="fill:none;stroke:#e41a1c;stroke-linecap:round;stroke-width:2.25;"/>
   </g>
   <g id="line2d_14">
    <defs>
     <path d="M 0 4.5 
C 1.193414 4.5 2.338109 4.025852 3.181981 3.181981 
C 4.025852 2.338109 4.5 1.193414 4.5 0 
C 4.5 -1.193414 4.025852 -2.338109 3.181981 -3.181981 
C 2.338109 -4.025852 1.193414 -4.5 0 -4.5 
C -1.193414 -4.5 -2.338109 -4.025852 -3.181981 -3.181981 
C -4.025852 -2.338109 -4.5 -1.193414 -4.5 0 
C -4.5 1.193414 -4.025852 2.338109 -3.181981 3.181981 
C -2.338109 4.025852 -1.193414 4.5 0 4.5 
z
" id="m602bc7e46e" style="stroke:#e41a1c;"/>
    </defs>
    <g clip-path="url(#pb8d847098f)">
     <use style="fill:#e41a1c;stroke:#e41a1c;" x="194.353019" xlink:href="#m602bc7e46e" y="126.504866"/>
    </g>
   </g>
   <g id="line2d_15">
    <path clip-path="url(#pb8d847098f)" d="M 328.56977 274.981116 
L 328.42304 274.869752 
L 328.31354 274.776461 
L 327.956569 274.639404 
L 327.847069 274.590794 
L 327.518569 274.463786 
L 327.409069 274.413003 
L 327.036768 274.251353 
L 326.303118 274.005777 
L 326.193618 273.953952 
L 325.830077 273.791254 
L 323.453925 272.872635 
L 323.344425 272.797389 
L 322.610775 272.169981 
L 322.501274 272.052324 
L 319.976202 270.114084 
L 319.868892 270.037906 
L 319.531632 269.760681 
L 319.146192 269.373409 
L 318.942521 269.190788 
L 318.668771 268.930132 
L 318.456341 268.763704 
L 318.257051 268.607322 
L 317.45551 267.927204 
L 317.3482 267.841648 
L 316.759089 267.288691 
L 316.529139 267.110697 
L 316.178739 266.824084 
L 315.869949 266.524357 
L 315.705699 266.402021 
L 310.469404 261.984904 
L 310.256974 261.765611 
L 308.108582 259.849525 
L 307.727522 259.543205 
L 307.407781 259.235024 
L 307.285141 259.128601 
L 306.687271 258.55075 
L 305.6295 257.650174 
L 305.39736 257.319591 
L 305.226539 257.12809 
L 304.657139 256.620886 
L 304.400909 256.48317 
L 302.951128 255.022949 
L 302.002857 253.89136 
L 301.796997 253.659001 
L 301.358996 253.191096 
L 300.130405 251.801074 
L 299.963965 251.570412 
L 299.698975 251.299114 
L 299.374854 250.973122 
L 298.455054 249.939903 
L 298.253573 249.737967 
L 297.749873 249.07587 
L 297.530873 248.86016 
L 297.143242 248.341322 
L 296.258482 247.306925 
L 295.978161 246.988522 
L 295.494171 246.326521 
L 293.091739 243.14585 
L 292.833319 242.812977 
L 291.107597 240.796022 
L 290.860127 240.323696 
L 289.973176 238.725419 
L 289.456336 237.896495 
L 289.042425 237.121698 
L 288.582525 236.282317 
L 287.634254 234.514947 
L 285.645732 231.307277 
L 285.282192 230.505808 
L 284.767542 229.514154 
L 284.149961 228.077878 
L 283.422881 226.810331 
L 281.425599 223.411584 
L 280.812398 222.071293 
L 278.425296 218.913536 
L 277.711356 217.930438 
L 275.455654 213.707054 
L 275.057073 213.111645 
L 273.824102 210.552091 
L 272.297671 208.271725 
L 271.51365 206.776815 
L 270.631079 205.279421 
L 268.191417 200.663502 
L 267.413967 199.340341 
L 266.954066 198.404832 
L 265.710145 195.958037 
L 264.428994 194.005699 
L 262.742693 190.688103 
L 261.233781 187.704384 
L 258.452479 182.417955 
L 257.769198 180.944426 
L 253.636665 173.18621 
L 251.729173 169.81472 
L 244.114536 156.935821 
L 243.118086 155.788166 
L 237.603661 147.533458 
L 235.647989 145.092938 
L 234.658108 143.854154 
L 233.865328 142.472529 
L 232.906107 141.134627 
L 231.789206 139.89916 
L 230.812465 138.566349 
L 228.992573 135.445545 
L 224.65199 129.703786 
L 223.167168 128.479597 
L 220.618006 125.503359 
L 217.821374 122.446518 
L 216.371592 120.885943 
L 210.706057 113.653376 
L 208.940916 111.970744 
L 200.222518 101.848763 
L 198.078506 99.866448 
L 196.225765 97.86971 
L 194.048903 95.764703 
L 191.799771 93.837293 
L 189.314119 92.100171 
L 187.082507 89.753104 
L 184.846515 87.216861 
L 182.568913 84.85189 
L 180.151151 82.733436 
L 177.912969 80.417524 
L 175.133857 78.115195 
L 169.555922 74.111897 
L 166.906019 71.632121 
L 163.993317 69.59208 
L 160.868184 67.575735 
L 157.478061 65.887344 
L 148.722434 62.79608 
L 144.68188 61.384827 
L 140.847187 59.096902 
L 137.231494 57.179195 
L 133.852321 54.875049 
L 126.839935 50.653022 
L 122.792811 49.94083 
L 118.603337 48.132635 
L 115.322715 45.953732 
L 111.089441 44.483588 
L 107.489078 42.4404 
L 103.840535 41.306931 
L 100.564292 40.120654 
L 96.567538 39.135761 
L 91.324674 37.311025 
L 91.324674 37.311025 
" style="fill:none;stroke:#377eb8;stroke-linecap:round;stroke-width:2.25;"/>
   </g>
   <g id="line2d_16">
    <defs>
     <path d="M 0 4.5 
C 1.193414 4.5 2.338109 4.025852 3.181981 3.181981 
C 4.025852 2.338109 4.5 1.193414 4.5 0 
C 4.5 -1.193414 4.025852 -2.338109 3.181981 -3.181981 
C 2.338109 -4.025852 1.193414 -4.5 0 -4.5 
C -1.193414 -4.5 -2.338109 -4.025852 -3.181981 -3.181981 
C -4.025852 -2.338109 -4.5 -1.193414 -4.5 0 
C -4.5 1.193414 -4.025852 2.338109 -3.181981 3.181981 
C -2.338109 4.025852 -1.193414 4.5 0 4.5 
z
" id="m38ff22c996" style="stroke:#377eb8;"/>
    </defs>
    <g clip-path="url(#pb8d847098f)">
     <use style="fill:#377eb8;stroke:#377eb8;" x="224.65199" xlink:href="#m38ff22c996" y="129.703786"/>
    </g>
   </g>
   <g id="line2d_17">
    <path clip-path="url(#pb8d847098f)" d="M 328.56977 274.723777 
L 328.476583 274.612008 
L 328.365476 274.52887 
L 328.275874 274.414661 
L 328.164767 274.304808 
L 328.003483 274.184729 
L 327.892376 274.110451 
L 327.720339 273.98647 
L 327.609232 273.859251 
L 327.4587 273.729297 
L 327.315337 273.597101 
L 327.20423 273.51225 
L 327.014273 273.385281 
L 326.92467 273.25368 
L 326.813563 273.161543 
L 326.62719 273.001714 
L 326.516084 272.922337 
L 326.197099 272.719335 
L 326.085992 272.623585 
L 325.863778 272.433087 
L 325.752671 272.344575 
L 325.290323 272.041593 
L 325.1828 271.950164 
L 324.917577 271.77373 
L 324.80647 271.658524 
L 324.401468 271.3735 
L 323.939119 271.018381 
L 323.828013 270.938097 
L 323.193628 270.446547 
L 323.082521 270.30633 
L 322.774289 269.946218 
L 322.663182 269.823455 
L 321.426669 268.554429 
L 321.319146 268.4314 
L 321.157862 268.19432 
L 320.785116 267.824432 
L 320.405202 267.505788 
L 320.154316 267.289214 
L 320.01812 267.130432 
L 319.738561 266.810451 
L 319.459001 266.491887 
L 319.355062 266.397805 
L 318.903466 265.935753 
L 318.806696 265.806757 
L 318.659748 265.617565 
L 318.552225 265.478335 
L 317.312128 264.315748 
L 317.054074 264.09011 
L 316.864117 263.915384 
L 316.412521 263.342877 
L 315.846234 262.820109 
L 315.774552 262.716313 
L 315.541586 262.589542 
L 315.34446 262.344892 
L 314.910785 261.907341 
L 314.387507 261.220643 
L 314.158125 260.985723 
L 313.871398 260.732293 
L 313.677856 260.555027 
L 313.448474 260.266322 
L 313.097233 259.998852 
L 312.903692 259.852567 
L 309.721016 256.369536 
L 309.513138 255.994417 
L 309.183402 255.648094 
L 304.463149 249.929624 
L 304.287528 249.616089 
L 303.800092 248.985872 
L 303.326991 248.320208 
L 303.011591 247.851493 
L 302.807297 247.645636 
L 301.975787 246.395286 
L 301.782246 246.086565 
L 301.255384 245.281333 
L 300.950736 244.964116 
L 300.800204 244.692261 
L 300.477636 244.25745 
L 300.162236 243.804723 
L 299.323557 242.57161 
L 299.101344 242.280256 
L 297.757308 240.516322 
L 297.223278 239.446821 
L 297.011816 239.074805 
L 296.8577 238.67146 
L 296.520795 238.170877 
L 295.739463 236.993804 
L 295.592515 236.582101 
L 295.348796 236.320815 
L 294.979635 235.753365 
L 292.882939 232.628069 
L 292.553203 232.119568 
L 291.323858 230.643524 
L 290.936776 230.121828 
L 289.148313 227.202828 
L 288.728974 226.587684 
L 288.345475 225.936105 
L 288.008571 225.493137 
L 286.78281 223.651886 
L 286.682456 223.357124 
L 286.30971 222.882758 
L 286.195019 222.605644 
L 285.790016 222.12644 
L 284.392219 219.97707 
L 283.8331 219.110129 
L 283.101945 217.923579 
L 282.37079 216.674485 
L 280.399538 212.508522 
L 279.697055 211.4144 
L 279.051918 210.260036 
L 278.130806 208.675236 
L 277.288543 207.412071 
L 276.216899 205.658894 
L 276.03411 205.164141 
L 273.919494 201.843723 
L 273.217012 200.140563 
L 272.743911 198.988755 
L 271.851472 197.348937 
L 271.356867 196.088154 
L 270.690225 194.889454 
L 269.120392 191.632583 
L 268.063084 189.540703 
L 267.389274 187.903187 
L 264.59368 182.5691 
L 263.195883 179.010867 
L 261.127861 175.32714 
L 256.378935 165.017833 
L 254.210558 160.243037 
L 252.923868 157.815894 
L 251.282353 153.530484 
L 250.04584 150.74785 
L 248.483175 147.653588 
L 247.723347 146.149582 
L 246.314797 142.85484 
L 245.440278 141.251392 
L 244.637441 139.529319 
L 242.540746 136.198208 
L 240.58383 132.400551 
L 239.462008 130.501896 
L 238.411869 128.426286 
L 237.060665 126.5617 
L 234.476533 121.905975 
L 233.0644 118.621227 
L 231.114652 116.418514 
L 229.512562 113.54837 
L 225.824528 107.783161 
L 223.46261 104.39362 
L 221.254808 101.923612 
L 218.799703 99.37204 
L 215.778311 97.304193 
L 209.21225 91.396758 
L 205.707005 87.719939 
L 201.699987 84.57634 
L 198.3847 81.429884 
L 194.488789 78.190644 
L 190.52478 75.403712 
L 187.048208 71.143676 
L 183.284909 67.843677 
L 171.672442 60.351343 
L 167.557902 58.402927 
L 163.299997 55.935848 
L 158.844967 53.714999 
L 154.612152 50.470759 
L 150.053183 48.276165 
L 145.29709 46.48612 
L 140.487235 44.354923 
L 135.731141 42.814853 
L 130.792259 41.351432 
L 118.756869 38.170937 
L 109.140743 37.224162 
L 97.82934 36.917667 
L 88.765165 35.51064 
L 88.765165 35.51064 
" style="fill:none;stroke:#4daf4a;stroke-linecap:round;stroke-width:2.25;"/>
   </g>
   <g id="line2d_18">
    <defs>
     <path d="M 0 4.5 
C 1.193414 4.5 2.338109 4.025852 3.181981 3.181981 
C 4.025852 2.338109 4.5 1.193414 4.5 0 
C 4.5 -1.193414 4.025852 -2.338109 3.181981 -3.181981 
C 2.338109 -4.025852 1.193414 -4.5 0 -4.5 
C -1.193414 -4.5 -2.338109 -4.025852 -3.181981 -3.181981 
C -4.025852 -2.338109 -4.5 -1.193414 -4.5 0 
C -4.5 1.193414 -4.025852 2.338109 -3.181981 3.181981 
C -2.338109 4.025852 -1.193414 4.5 0 4.5 
z
" id="m07573ce42d" style="stroke:#4daf4a;"/>
    </defs>
    <g clip-path="url(#pb8d847098f)">
     <use style="fill:#4daf4a;stroke:#4daf4a;" x="225.824528" xlink:href="#m07573ce42d" y="107.783161"/>
    </g>
   </g>
   <g id="patch_3">
    <path d="M 76.774934 286.963296 
L 76.774934 23.536704 
" style="fill:none;stroke:#262626;stroke-linecap:square;stroke-linejoin:miter;stroke-width:1.875;"/>
   </g>
   <g id="patch_4">
    <path d="M 76.774934 286.963296 
L 340.56 286.963296 
" style="fill:none;stroke:#262626;stroke-linecap:square;stroke-linejoin:miter;stroke-width:1.875;"/>
   </g>
   <g id="text_15">
    <!-- 2021_05_code_2020_12_fairseq_swissprot -->
    <g style="fill:#262626;" transform="translate(18.249967 17.536704)scale(0.18 -0.18)">
     <defs>
      <path d="M 50.984375 -16.609375 
L 50.984375 -23.578125 
L -0.984375 -23.578125 
L -0.984375 -16.609375 
z
" id="DejaVuSans-95"/>
      <path d="M 10.796875 72.90625 
L 49.515625 72.90625 
L 49.515625 64.59375 
L 19.828125 64.59375 
L 19.828125 46.734375 
Q 21.96875 47.46875 24.109375 47.828125 
Q 26.265625 48.1875 28.421875 48.1875 
Q 40.625 48.1875 47.75 41.5 
Q 54.890625 34.8125 54.890625 23.390625 
Q 54.890625 11.625 47.5625 5.09375 
Q 40.234375 -1.421875 26.90625 -1.421875 
Q 22.3125 -1.421875 17.546875 -0.640625 
Q 12.796875 0.140625 7.71875 1.703125 
L 7.71875 11.625 
Q 12.109375 9.234375 16.796875 8.0625 
Q 21.484375 6.890625 26.703125 6.890625 
Q 35.15625 6.890625 40.078125 11.328125 
Q 45.015625 15.765625 45.015625 23.390625 
Q 45.015625 31 40.078125 35.4375 
Q 35.15625 39.890625 26.703125 39.890625 
Q 22.75 39.890625 18.8125 39.015625 
Q 14.890625 38.140625 10.796875 36.28125 
z
" id="DejaVuSans-53"/>
      <path d="M 45.40625 46.390625 
L 45.40625 75.984375 
L 54.390625 75.984375 
L 54.390625 0 
L 45.40625 0 
L 45.40625 8.203125 
Q 42.578125 3.328125 38.25 0.953125 
Q 33.9375 -1.421875 27.875 -1.421875 
Q 17.96875 -1.421875 11.734375 6.484375 
Q 5.515625 14.40625 5.515625 27.296875 
Q 5.515625 40.1875 11.734375 48.09375 
Q 17.96875 56 27.875 56 
Q 33.9375 56 38.25 53.625 
Q 42.578125 51.265625 45.40625 46.390625 
z
M 14.796875 27.296875 
Q 14.796875 17.390625 18.875 11.75 
Q 22.953125 6.109375 30.078125 6.109375 
Q 37.203125 6.109375 41.296875 11.75 
Q 45.40625 17.390625 45.40625 27.296875 
Q 45.40625 37.203125 41.296875 42.84375 
Q 37.203125 48.484375 30.078125 48.484375 
Q 22.953125 48.484375 18.875 42.84375 
Q 14.796875 37.203125 14.796875 27.296875 
z
" id="DejaVuSans-100"/>
      <path d="M 37.109375 75.984375 
L 37.109375 68.5 
L 28.515625 68.5 
Q 23.6875 68.5 21.796875 66.546875 
Q 19.921875 64.59375 19.921875 59.515625 
L 19.921875 54.6875 
L 34.71875 54.6875 
L 34.71875 47.703125 
L 19.921875 47.703125 
L 19.921875 0 
L 10.890625 0 
L 10.890625 47.703125 
L 2.296875 47.703125 
L 2.296875 54.6875 
L 10.890625 54.6875 
L 10.890625 58.5 
Q 10.890625 67.625 15.140625 71.796875 
Q 19.390625 75.984375 28.609375 75.984375 
z
" id="DejaVuSans-102"/>
      <path d="M 14.796875 27.296875 
Q 14.796875 17.390625 18.875 11.75 
Q 22.953125 6.109375 30.078125 6.109375 
Q 37.203125 6.109375 41.296875 11.75 
Q 45.40625 17.390625 45.40625 27.296875 
Q 45.40625 37.203125 41.296875 42.84375 
Q 37.203125 48.484375 30.078125 48.484375 
Q 22.953125 48.484375 18.875 42.84375 
Q 14.796875 37.203125 14.796875 27.296875 
z
M 45.40625 8.203125 
Q 42.578125 3.328125 38.25 0.953125 
Q 33.9375 -1.421875 27.875 -1.421875 
Q 17.96875 -1.421875 11.734375 6.484375 
Q 5.515625 14.40625 5.515625 27.296875 
Q 5.515625 40.1875 11.734375 48.09375 
Q 17.96875 56 27.875 56 
Q 33.9375 56 38.25 53.625 
Q 42.578125 51.265625 45.40625 46.390625 
L 45.40625 54.6875 
L 54.390625 54.6875 
L 54.390625 -20.796875 
L 45.40625 -20.796875 
z
" id="DejaVuSans-113"/>
      <path d="M 4.203125 54.6875 
L 13.1875 54.6875 
L 24.421875 12.015625 
L 35.59375 54.6875 
L 46.1875 54.6875 
L 57.421875 12.015625 
L 68.609375 54.6875 
L 77.59375 54.6875 
L 63.28125 0 
L 52.6875 0 
L 40.921875 44.828125 
L 29.109375 0 
L 18.5 0 
z
" id="DejaVuSans-119"/>
      <path d="M 18.109375 8.203125 
L 18.109375 -20.796875 
L 9.078125 -20.796875 
L 9.078125 54.6875 
L 18.109375 54.6875 
L 18.109375 46.390625 
Q 20.953125 51.265625 25.265625 53.625 
Q 29.59375 56 35.59375 56 
Q 45.5625 56 51.78125 48.09375 
Q 58.015625 40.1875 58.015625 27.296875 
Q 58.015625 14.40625 51.78125 6.484375 
Q 45.5625 -1.421875 35.59375 -1.421875 
Q 29.59375 -1.421875 25.265625 0.953125 
Q 20.953125 3.328125 18.109375 8.203125 
z
M 48.6875 27.296875 
Q 48.6875 37.203125 44.609375 42.84375 
Q 40.53125 48.484375 33.40625 48.484375 
Q 26.265625 48.484375 22.1875 42.84375 
Q 18.109375 37.203125 18.109375 27.296875 
Q 18.109375 17.390625 22.1875 11.75 
Q 26.265625 6.109375 33.40625 6.109375 
Q 40.53125 6.109375 44.609375 11.75 
Q 48.6875 17.390625 48.6875 27.296875 
z
" id="DejaVuSans-112"/>
      <path d="M 18.3125 70.21875 
L 18.3125 54.6875 
L 36.8125 54.6875 
L 36.8125 47.703125 
L 18.3125 47.703125 
L 18.3125 18.015625 
Q 18.3125 11.328125 20.140625 9.421875 
Q 21.96875 7.515625 27.59375 7.515625 
L 36.8125 7.515625 
L 36.8125 0 
L 27.59375 0 
Q 17.1875 0 13.234375 3.875 
Q 9.28125 7.765625 9.28125 18.015625 
L 9.28125 47.703125 
L 2.6875 47.703125 
L 2.6875 54.6875 
L 9.28125 54.6875 
L 9.28125 70.21875 
z
" id="DejaVuSans-116"/>
     </defs>
     <use xlink:href="#DejaVuSans-50"/>
     <use x="63.623047" xlink:href="#DejaVuSans-48"/>
     <use x="127.246094" xlink:href="#DejaVuSans-50"/>
     <use x="190.869141" xlink:href="#DejaVuSans-49"/>
     <use x="254.492188" xlink:href="#DejaVuSans-95"/>
     <use x="304.492188" xlink:href="#DejaVuSans-48"/>
     <use x="368.115234" xlink:href="#DejaVuSans-53"/>
     <use x="431.738281" xlink:href="#DejaVuSans-95"/>
     <use x="481.738281" xlink:href="#DejaVuSans-99"/>
     <use x="536.71875" xlink:href="#DejaVuSans-111"/>
     <use x="597.900391" xlink:href="#DejaVuSans-100"/>
     <use x="661.376953" xlink:href="#DejaVuSans-101"/>
     <use x="722.900391" xlink:href="#DejaVuSans-95"/>
     <use x="772.900391" xlink:href="#DejaVuSans-50"/>
     <use x="836.523438" xlink:href="#DejaVuSans-48"/>
     <use x="900.146484" xlink:href="#DejaVuSans-50"/>
     <use x="963.769531" xlink:href="#DejaVuSans-48"/>
     <use x="1027.392578" xlink:href="#DejaVuSans-95"/>
     <use x="1077.392578" xlink:href="#DejaVuSans-49"/>
     <use x="1141.015625" xlink:href="#DejaVuSans-50"/>
     <use x="1204.638672" xlink:href="#DejaVuSans-95"/>
     <use x="1254.638672" xlink:href="#DejaVuSans-102"/>
     <use x="1289.84375" xlink:href="#DejaVuSans-97"/>
     <use x="1351.123047" xlink:href="#DejaVuSans-105"/>
     <use x="1378.90625" xlink:href="#DejaVuSans-114"/>
     <use x="1420.019531" xlink:href="#DejaVuSans-115"/>
     <use x="1472.119141" xlink:href="#DejaVuSans-101"/>
     <use x="1533.642578" xlink:href="#DejaVuSans-113"/>
     <use x="1597.119141" xlink:href="#DejaVuSans-95"/>
     <use x="1647.119141" xlink:href="#DejaVuSans-115"/>
     <use x="1699.21875" xlink:href="#DejaVuSans-119"/>
     <use x="1781.005859" xlink:href="#DejaVuSans-105"/>
     <use x="1808.789062" xlink:href="#DejaVuSans-115"/>
     <use x="1860.888672" xlink:href="#DejaVuSans-115"/>
     <use x="1912.988281" xlink:href="#DejaVuSans-112"/>
     <use x="1976.464844" xlink:href="#DejaVuSans-114"/>
     <use x="2015.328125" xlink:href="#DejaVuSans-111"/>
     <use x="2076.509766" xlink:href="#DejaVuSans-116"/>
    </g>
   </g>
   <g id="legend_1">
    <g id="line2d_19">
     <path d="M 88.474934 229.846577 
L 114.474934 229.846577 
" style="fill:none;stroke:#e41a1c;stroke-linecap:round;stroke-width:2.25;"/>
    </g>
    <g id="line2d_20"/>
    <g id="text_16">
     <!-- BP, Fmax = 0.52 -->
     <g style="fill:#262626;" transform="translate(124.874934 234.396577)scale(0.13 -0.13)">
      <defs>
       <path d="M 19.671875 34.8125 
L 19.671875 8.109375 
L 35.5 8.109375 
Q 43.453125 8.109375 47.28125 11.40625 
Q 51.125 14.703125 51.125 21.484375 
Q 51.125 28.328125 47.28125 31.5625 
Q 43.453125 34.8125 35.5 34.8125 
z
M 19.671875 64.796875 
L 19.671875 42.828125 
L 34.28125 42.828125 
Q 41.5 42.828125 45.03125 45.53125 
Q 48.578125 48.25 48.578125 53.8125 
Q 48.578125 59.328125 45.03125 62.0625 
Q 41.5 64.796875 34.28125 64.796875 
z
M 9.8125 72.90625 
L 35.015625 72.90625 
Q 46.296875 72.90625 52.390625 68.21875 
Q 58.5 63.53125 58.5 54.890625 
Q 58.5 48.1875 55.375 44.234375 
Q 52.25 40.28125 46.1875 39.3125 
Q 53.46875 37.75 57.5 32.78125 
Q 61.53125 27.828125 61.53125 20.40625 
Q 61.53125 10.640625 54.890625 5.3125 
Q 48.25 0 35.984375 0 
L 9.8125 0 
z
" id="DejaVuSans-66"/>
       <path d="M 11.71875 12.40625 
L 22.015625 12.40625 
L 22.015625 4 
L 14.015625 -11.625 
L 7.71875 -11.625 
L 11.71875 4 
z
" id="DejaVuSans-44"/>
       <path id="DejaVuSans-32"/>
       <path d="M 9.8125 72.90625 
L 51.703125 72.90625 
L 51.703125 64.59375 
L 19.671875 64.59375 
L 19.671875 43.109375 
L 48.578125 43.109375 
L 48.578125 34.8125 
L 19.671875 34.8125 
L 19.671875 0 
L 9.8125 0 
z
" id="DejaVuSans-70"/>
       <path d="M 52 44.1875 
Q 55.375 50.25 60.0625 53.125 
Q 64.75 56 71.09375 56 
Q 79.640625 56 84.28125 50.015625 
Q 88.921875 44.046875 88.921875 33.015625 
L 88.921875 0 
L 79.890625 0 
L 79.890625 32.71875 
Q 79.890625 40.578125 77.09375 44.375 
Q 74.3125 48.1875 68.609375 48.1875 
Q 61.625 48.1875 57.5625 43.546875 
Q 53.515625 38.921875 53.515625 30.90625 
L 53.515625 0 
L 44.484375 0 
L 44.484375 32.71875 
Q 44.484375 40.625 41.703125 44.40625 
Q 38.921875 48.1875 33.109375 48.1875 
Q 26.21875 48.1875 22.15625 43.53125 
Q 18.109375 38.875 18.109375 30.90625 
L 18.109375 0 
L 9.078125 0 
L 9.078125 54.6875 
L 18.109375 54.6875 
L 18.109375 46.1875 
Q 21.1875 51.21875 25.484375 53.609375 
Q 29.78125 56 35.6875 56 
Q 41.65625 56 45.828125 52.96875 
Q 50 49.953125 52 44.1875 
z
" id="DejaVuSans-109"/>
       <path d="M 54.890625 54.6875 
L 35.109375 28.078125 
L 55.90625 0 
L 45.3125 0 
L 29.390625 21.484375 
L 13.484375 0 
L 2.875 0 
L 24.125 28.609375 
L 4.6875 54.6875 
L 15.28125 54.6875 
L 29.78125 35.203125 
L 44.28125 54.6875 
z
" id="DejaVuSans-120"/>
       <path d="M 10.59375 45.40625 
L 73.1875 45.40625 
L 73.1875 37.203125 
L 10.59375 37.203125 
z
M 10.59375 25.484375 
L 73.1875 25.484375 
L 73.1875 17.1875 
L 10.59375 17.1875 
z
" id="DejaVuSans-61"/>
      </defs>
      <use xlink:href="#DejaVuSans-66"/>
      <use x="68.603516" xlink:href="#DejaVuSans-80"/>
      <use x="128.90625" xlink:href="#DejaVuSans-44"/>
      <use x="160.693359" xlink:href="#DejaVuSans-32"/>
      <use x="192.480469" xlink:href="#DejaVuSans-70"/>
      <use x="250" xlink:href="#DejaVuSans-109"/>
      <use x="347.412109" xlink:href="#DejaVuSans-97"/>
      <use x="408.691406" xlink:href="#DejaVuSans-120"/>
      <use x="467.871094" xlink:href="#DejaVuSans-32"/>
      <use x="499.658203" xlink:href="#DejaVuSans-61"/>
      <use x="583.447266" xlink:href="#DejaVuSans-32"/>
      <use x="615.234375" xlink:href="#DejaVuSans-48"/>
      <use x="678.857422" xlink:href="#DejaVuSans-46"/>
      <use x="710.644531" xlink:href="#DejaVuSans-53"/>
      <use x="774.267578" xlink:href="#DejaVuSans-50"/>
     </g>
    </g>
    <g id="line2d_21">
     <path d="M 88.474934 248.928139 
L 114.474934 248.928139 
" style="fill:none;stroke:#377eb8;stroke-linecap:round;stroke-width:2.25;"/>
    </g>
    <g id="line2d_22"/>
    <g id="text_17">
     <!-- MF, Fmax = 0.59 -->
     <g style="fill:#262626;" transform="translate(124.874934 253.478139)scale(0.13 -0.13)">
      <defs>
       <path d="M 9.8125 72.90625 
L 24.515625 72.90625 
L 43.109375 23.296875 
L 61.8125 72.90625 
L 76.515625 72.90625 
L 76.515625 0 
L 66.890625 0 
L 66.890625 64.015625 
L 48.09375 14.015625 
L 38.1875 14.015625 
L 19.390625 64.015625 
L 19.390625 0 
L 9.8125 0 
z
" id="DejaVuSans-77"/>
       <path d="M 10.984375 1.515625 
L 10.984375 10.5 
Q 14.703125 8.734375 18.5 7.8125 
Q 22.3125 6.890625 25.984375 6.890625 
Q 35.75 6.890625 40.890625 13.453125 
Q 46.046875 20.015625 46.78125 33.40625 
Q 43.953125 29.203125 39.59375 26.953125 
Q 35.25 24.703125 29.984375 24.703125 
Q 19.046875 24.703125 12.671875 31.3125 
Q 6.296875 37.9375 6.296875 49.421875 
Q 6.296875 60.640625 12.9375 67.421875 
Q 19.578125 74.21875 30.609375 74.21875 
Q 43.265625 74.21875 49.921875 64.515625 
Q 56.59375 54.828125 56.59375 36.375 
Q 56.59375 19.140625 48.40625 8.859375 
Q 40.234375 -1.421875 26.421875 -1.421875 
Q 22.703125 -1.421875 18.890625 -0.6875 
Q 15.09375 0.046875 10.984375 1.515625 
z
M 30.609375 32.421875 
Q 37.25 32.421875 41.125 36.953125 
Q 45.015625 41.5 45.015625 49.421875 
Q 45.015625 57.28125 41.125 61.84375 
Q 37.25 66.40625 30.609375 66.40625 
Q 23.96875 66.40625 20.09375 61.84375 
Q 16.21875 57.28125 16.21875 49.421875 
Q 16.21875 41.5 20.09375 36.953125 
Q 23.96875 32.421875 30.609375 32.421875 
z
" id="DejaVuSans-57"/>
      </defs>
      <use xlink:href="#DejaVuSans-77"/>
      <use x="86.279297" xlink:href="#DejaVuSans-70"/>
      <use x="143.798828" xlink:href="#DejaVuSans-44"/>
      <use x="175.585938" xlink:href="#DejaVuSans-32"/>
      <use x="207.373047" xlink:href="#DejaVuSans-70"/>
      <use x="264.892578" xlink:href="#DejaVuSans-109"/>
      <use x="362.304688" xlink:href="#DejaVuSans-97"/>
      <use x="423.583984" xlink:href="#DejaVuSans-120"/>
      <use x="482.763672" xlink:href="#DejaVuSans-32"/>
      <use x="514.550781" xlink:href="#DejaVuSans-61"/>
      <use x="598.339844" xlink:href="#DejaVuSans-32"/>
      <use x="630.126953" xlink:href="#DejaVuSans-48"/>
      <use x="693.75" xlink:href="#DejaVuSans-46"/>
      <use x="725.537109" xlink:href="#DejaVuSans-53"/>
      <use x="789.160156" xlink:href="#DejaVuSans-57"/>
     </g>
    </g>
    <g id="line2d_23">
     <path d="M 88.474934 268.009702 
L 114.474934 268.009702 
" style="fill:none;stroke:#4daf4a;stroke-linecap:round;stroke-width:2.25;"/>
    </g>
    <g id="line2d_24"/>
    <g id="text_18">
     <!-- CC, Fmax = 0.63 -->
     <g style="fill:#262626;" transform="translate(124.874934 272.559702)scale(0.13 -0.13)">
      <defs>
       <path d="M 64.40625 67.28125 
L 64.40625 56.890625 
Q 59.421875 61.53125 53.78125 63.8125 
Q 48.140625 66.109375 41.796875 66.109375 
Q 29.296875 66.109375 22.65625 58.46875 
Q 16.015625 50.828125 16.015625 36.375 
Q 16.015625 21.96875 22.65625 14.328125 
Q 29.296875 6.6875 41.796875 6.6875 
Q 48.140625 6.6875 53.78125 8.984375 
Q 59.421875 11.28125 64.40625 15.921875 
L 64.40625 5.609375 
Q 59.234375 2.09375 53.4375 0.328125 
Q 47.65625 -1.421875 41.21875 -1.421875 
Q 24.65625 -1.421875 15.125 8.703125 
Q 5.609375 18.84375 5.609375 36.375 
Q 5.609375 53.953125 15.125 64.078125 
Q 24.65625 74.21875 41.21875 74.21875 
Q 47.75 74.21875 53.53125 72.484375 
Q 59.328125 70.75 64.40625 67.28125 
z
" id="DejaVuSans-67"/>
       <path d="M 40.578125 39.3125 
Q 47.65625 37.796875 51.625 33 
Q 55.609375 28.21875 55.609375 21.1875 
Q 55.609375 10.40625 48.1875 4.484375 
Q 40.765625 -1.421875 27.09375 -1.421875 
Q 22.515625 -1.421875 17.65625 -0.515625 
Q 12.796875 0.390625 7.625 2.203125 
L 7.625 11.71875 
Q 11.71875 9.328125 16.59375 8.109375 
Q 21.484375 6.890625 26.8125 6.890625 
Q 36.078125 6.890625 40.9375 10.546875 
Q 45.796875 14.203125 45.796875 21.1875 
Q 45.796875 27.640625 41.28125 31.265625 
Q 36.765625 34.90625 28.71875 34.90625 
L 20.21875 34.90625 
L 20.21875 43.015625 
L 29.109375 43.015625 
Q 36.375 43.015625 40.234375 45.921875 
Q 44.09375 48.828125 44.09375 54.296875 
Q 44.09375 59.90625 40.109375 62.90625 
Q 36.140625 65.921875 28.71875 65.921875 
Q 24.65625 65.921875 20.015625 65.03125 
Q 15.375 64.15625 9.8125 62.3125 
L 9.8125 71.09375 
Q 15.4375 72.65625 20.34375 73.4375 
Q 25.25 74.21875 29.59375 74.21875 
Q 40.828125 74.21875 47.359375 69.109375 
Q 53.90625 64.015625 53.90625 55.328125 
Q 53.90625 49.265625 50.4375 45.09375 
Q 46.96875 40.921875 40.578125 39.3125 
z
" id="DejaVuSans-51"/>
      </defs>
      <use xlink:href="#DejaVuSans-67"/>
      <use x="69.824219" xlink:href="#DejaVuSans-67"/>
      <use x="139.648438" xlink:href="#DejaVuSans-44"/>
      <use x="171.435547" xlink:href="#DejaVuSans-32"/>
      <use x="203.222656" xlink:href="#DejaVuSans-70"/>
      <use x="260.742188" xlink:href="#DejaVuSans-109"/>
      <use x="358.154297" xlink:href="#DejaVuSans-97"/>
      <use x="419.433594" xlink:href="#DejaVuSans-120"/>
      <use x="478.613281" xlink:href="#DejaVuSans-32"/>
      <use x="510.400391" xlink:href="#DejaVuSans-61"/>
      <use x="594.189453" xlink:href="#DejaVuSans-32"/>
      <use x="625.976562" xlink:href="#DejaVuSans-48"/>
      <use x="689.599609" xlink:href="#DejaVuSans-46"/>
      <use x="721.386719" xlink:href="#DejaVuSans-54"/>
      <use x="785.009766" xlink:href="#DejaVuSans-51"/>
     </g>
    </g>
   </g>
  </g>
 </g>
 <defs>
  <clipPath id="pb8d847098f">
   <rect height="263.426591" width="263.785066" x="76.774934" y="23.536704"/>
  </clipPath>
 </defs>
</svg>
